<svg width="297" height="200" viewBox="0 0 297 200" fill="none" xmlns="http://www.w3.org/2000/svg">
<path d="M158.152 41.7582C158.152 41.7582 189.484 60.4626 190.721 61.4089C191.958 62.3551 205.601 88.3902 205.601 88.3902C205.601 88.3902 224.061 109.225 230.044 116.19C236.029 123.148 247.674 145.291 248.586 148.274C249.499 151.256 247.874 153.312 241.509 157.485C235.144 161.658 200.898 175.617 187.709 177.027C174.519 178.438 173.159 177.301 168.045 172.826C162.931 168.351 137.803 141.367 126.136 124.1C114.476 106.833 102.142 91.6884 96.6318 86.1453C91.1216 80.6023 87.1093 71.5102 86.29 66.7573C85.4708 62.0044 87.23 58.0347 88.3732 56.6763C89.5163 55.3179 92.5682 50.6835 96.011 49.2227C99.4538 47.7618 152.31 40.3644 153.993 40.1151C155.677 39.8657 158.158 41.7598 158.158 41.7598L158.152 41.7582Z" fill="#F9B974" stroke="#124052" stroke-width="0.374533" stroke-miterlimit="10"/>
<path d="M157.068 51.0838L111.386 60.8033C111.386 60.8033 101.569 55.3248 90.744 53.6593C92.1756 51.9427 94.0266 50.053 96.0045 49.2158C98.9245 47.9803 137.515 42.451 150.088 40.6622L156.262 49.6736L157.068 51.0838Z" fill="#124052" stroke="#124052" stroke-width="0.374533" stroke-miterlimit="10"/>
<path d="M115.109 65.9569L111.946 62.283L158.16 52.293L162.785 55.7976L115.109 65.9569Z" fill="#124052" stroke="#124052" stroke-width="0.374533" stroke-miterlimit="10"/>
<path d="M189.225 61.5384L120.152 78.2558L131.345 108.425L204.299 89.0561L189.225 61.5384Z" stroke="#124052" stroke-width="0.374533" stroke-miterlimit="10"/>
<path d="M179.897 164.748C179.897 164.748 180.752 169.349 178.566 173.056C176.379 176.762 174.452 175.98 174.452 175.98" stroke="#124052" stroke-width="0.374533" stroke-miterlimit="10"/>
<path d="M176.148 61.9758L121.124 75.5556C121.124 75.5556 99.2402 57.4812 97.5082 57.229C95.7762 56.9768 93.1826 58.3112 91.6203 59.4016C90.058 60.492 89.1927 58.6614 89.7442 56.3497" stroke="#124052" stroke-width="0.374533" stroke-miterlimit="10"/>
<path d="M183.955 60.0442L179.201 61.2202" stroke="#124052" stroke-width="0.374533" stroke-miterlimit="10"/>
<path d="M139.794 121.307C147.5 130.496 157.728 142.408 163.674 148.181C174.109 158.316 177.326 161.205 180.638 162.317C183.95 163.429 208.348 158.028 222.072 152.999C235.801 147.979 242.753 144.751 243.809 143.05" stroke="#124052" stroke-width="0.374533" stroke-miterlimit="10"/>
<path d="M94.9825 50.7689C94.9825 50.7689 93.4847 54.3179 96.2088 57.8942C98.9329 61.4704 117.763 77.3529 117.763 77.3529L129.582 108.974C129.582 108.974 132.712 112.815 137.19 118.195" stroke="#124052" stroke-width="0.374533" stroke-miterlimit="10"/>
<path d="M231.466 160.785C237.071 158.272 242.123 155.613 245.839 152.978" stroke="#124052" stroke-width="0.374533" stroke-miterlimit="10"/>
<path d="M169.997 169.927C173.005 172.549 175.38 174.152 176.933 174.452C180.513 175.145 196.039 173.48 209.084 169.269C215.403 167.228 222.247 164.744 228.582 162.048" stroke="#124052" stroke-width="0.374533" stroke-miterlimit="10"/>
<path d="M147.266 145.128C150.373 149.097 153.167 152.529 155.378 154.996C160.034 160.188 164.244 164.608 167.779 167.923" stroke="#124052" stroke-width="0.374533" stroke-miterlimit="10"/>
<path d="M99.9512 85.4326C104.677 90.9775 110.065 97.2965 114.156 102.039C120.761 109.712 134.038 128.008 144.696 141.815" stroke="#124052" stroke-width="0.374533" stroke-miterlimit="10"/>
<path d="M89.2322 72.828C89.2322 72.828 92.7904 77.0163 97.5028 82.558" stroke="#124052" stroke-width="0.374533" stroke-miterlimit="10"/>
<path d="M120.794 100.421C110.416 89.1377 91.3885 68.3915 89.694 66.104C87.3542 62.9415 87.2275 61.4482 87.2275 61.4482" stroke="#124052" stroke-width="0.374533" stroke-miterlimit="10"/>
<path d="M127.458 107.66C127.458 107.66 125.444 105.478 122.343 102.106" stroke="#124052" stroke-width="0.374533" stroke-miterlimit="10"/>
<path d="M128.731 80.9374L137.212 102.871L196.299 86.816L186.954 66.9168L128.731 80.9374Z" fill="#949494" stroke="#124052" stroke-width="0.374533" stroke-miterlimit="10"/>
<path d="M133.675 82.2913L139.957 98.9185L191.288 84.9689L184.254 70.1154L133.675 82.2913Z" fill="white"/>
<path d="M192.571 101.13L184.627 103.351C184.462 103.396 184.292 103.348 184.173 103.229L182.393 101.362C182.157 101.116 182.27 100.702 182.599 100.613L190.543 98.3916C190.707 98.3469 190.878 98.3946 190.997 98.5139L192.777 100.381C193.013 100.626 192.9 101.04 192.571 101.13Z" stroke="#808181" stroke-width="0.374533" stroke-miterlimit="10"/>
<path d="M196.682 106.498L188.738 108.719C188.574 108.764 188.403 108.716 188.285 108.597L186.504 106.73C186.268 106.485 186.381 106.07 186.71 105.981L194.654 103.76C194.819 103.715 194.989 103.763 195.108 103.882L196.889 105.749C197.124 105.994 197.012 106.408 196.682 106.498Z" stroke="#808181" stroke-width="0.374533" stroke-miterlimit="10"/>
<path d="M201.006 111.316L193.063 113.537C192.898 113.582 192.727 113.534 192.609 113.415L190.828 111.548C190.593 111.303 190.705 110.889 191.035 110.799L198.978 108.578C199.143 108.533 199.314 108.581 199.432 108.7L201.213 110.567C201.449 110.813 201.336 111.227 201.006 111.316Z" stroke="#808181" stroke-width="0.374533" stroke-miterlimit="10"/>
<path d="M179.294 104.539L171.351 106.76C171.186 106.805 171.015 106.757 170.897 106.638L169.116 104.771C168.881 104.526 168.993 104.111 169.323 104.022L177.266 101.801C177.431 101.756 177.602 101.804 177.72 101.923L179.501 103.79C179.737 104.035 179.624 104.449 179.294 104.539Z" stroke="#808181" stroke-width="0.374533" stroke-miterlimit="10"/>
<path d="M183.408 109.896L175.464 112.117C175.299 112.162 175.129 112.114 175.01 111.995L173.229 110.128C172.994 109.883 173.107 109.469 173.436 109.379L181.38 107.158C181.544 107.113 181.715 107.161 181.834 107.281L183.614 109.148C183.85 109.393 183.737 109.807 183.408 109.896Z" stroke="#808181" stroke-width="0.374533" stroke-miterlimit="10"/>
<path d="M187.734 114.713L179.79 116.934C179.626 116.979 179.455 116.931 179.336 116.812L177.556 114.945C177.32 114.699 177.433 114.285 177.762 114.196L185.706 111.975C185.871 111.93 186.041 111.978 186.16 112.097L187.941 113.964C188.176 114.209 188.063 114.623 187.734 114.713Z" stroke="#808181" stroke-width="0.374533" stroke-miterlimit="10"/>
<path d="M166.023 107.94L158.079 110.161C157.915 110.206 157.744 110.158 157.625 110.039L155.845 108.172C155.609 107.927 155.722 107.513 156.051 107.423L163.995 105.202C164.16 105.157 164.33 105.205 164.449 105.324L166.23 107.191C166.465 107.437 166.352 107.851 166.023 107.94Z" stroke="#808181" stroke-width="0.374533" stroke-miterlimit="10"/>
<path d="M170.137 113.298L162.194 115.519C162.029 115.564 161.858 115.516 161.74 115.397L159.959 113.53C159.723 113.284 159.836 112.87 160.166 112.781L168.109 110.56C168.274 110.515 168.445 110.563 168.563 110.682L170.344 112.549C170.579 112.794 170.467 113.208 170.137 113.298Z" stroke="#808181" stroke-width="0.374533" stroke-miterlimit="10"/>
<path d="M174.453 118.122L166.509 120.343C166.344 120.388 166.174 120.34 166.055 120.221L164.274 118.354C164.039 118.109 164.152 117.694 164.481 117.605L172.425 115.384C172.589 115.339 172.76 115.387 172.879 115.506L174.659 117.373C174.895 117.618 174.782 118.032 174.453 118.122Z" stroke="#808181" stroke-width="0.374533" stroke-miterlimit="10"/>
<path d="M156.184 117.047L148.24 119.268C148.076 119.313 147.905 119.265 147.787 119.146L146.006 117.279C145.77 117.033 145.883 116.619 146.212 116.53L154.156 114.309C154.321 114.264 154.491 114.312 154.61 114.431L156.391 116.298C156.626 116.543 156.513 116.957 156.184 117.047Z" stroke="#808181" stroke-width="0.374533" stroke-miterlimit="10"/>
<path d="M160.51 121.867L152.567 124.088C152.402 124.133 152.231 124.085 152.113 123.966L150.332 122.099C150.096 121.854 150.209 121.44 150.539 121.35L158.482 119.129C158.647 119.084 158.818 119.132 158.936 119.251L160.717 121.118C160.952 121.363 160.84 121.778 160.51 121.867Z" stroke="#808181" stroke-width="0.374533" stroke-miterlimit="10"/>
<path d="M213.743 107.704L205.799 109.925C205.634 109.97 205.464 109.922 205.345 109.803L203.564 107.936C203.329 107.691 203.442 107.276 203.771 107.187L211.715 104.966C211.879 104.921 212.05 104.969 212.169 105.088L213.949 106.955C214.185 107.2 214.072 107.614 213.743 107.704Z" stroke="#808181" stroke-width="0.374533" stroke-miterlimit="10"/>
<path d="M207.926 119.405L199.982 121.626C199.818 121.671 199.647 121.623 199.528 121.504L194.995 116.327C194.76 116.081 194.872 115.667 195.202 115.578L203.145 113.357C203.31 113.312 203.481 113.36 203.599 113.479L208.133 118.656C208.368 118.901 208.255 119.315 207.926 119.405Z" stroke="#808181" stroke-width="0.374533" stroke-miterlimit="10"/>
<path d="M220.801 115.912L212.857 118.133C212.693 118.177 212.522 118.13 212.403 118.01L207.87 112.833C207.635 112.588 207.747 112.174 208.077 112.085L216.02 109.863C216.185 109.819 216.356 109.866 216.474 109.986L221.008 115.163C221.243 115.408 221.13 115.822 220.801 115.912Z" stroke="#808181" stroke-width="0.374533" stroke-miterlimit="10"/>
<path d="M227.402 123.884L219.458 126.105C219.293 126.15 219.123 126.102 219.004 125.983L214.471 120.806C214.235 120.561 214.348 120.147 214.677 120.057L222.621 117.836C222.786 117.791 222.956 117.839 223.075 117.958L227.608 123.135C227.844 123.381 227.731 123.795 227.402 123.884Z" stroke="#808181" stroke-width="0.374533" stroke-miterlimit="10"/>
<path d="M233.317 132.288L225.373 134.509C225.208 134.553 225.038 134.506 224.919 134.386L220.386 129.209C220.15 128.964 220.263 128.55 220.592 128.461L228.536 126.239C228.701 126.195 228.871 126.242 228.99 126.362L233.523 131.539C233.759 131.784 233.646 132.198 233.317 132.288Z" stroke="#808181" stroke-width="0.374533" stroke-miterlimit="10"/>
<path d="M239.646 140.704L231.702 142.925C231.537 142.969 231.367 142.922 231.248 142.802L226.715 137.625C226.479 137.38 226.592 136.966 226.921 136.877L234.865 134.655C235.03 134.611 235.2 134.658 235.319 134.778L239.852 139.955C240.088 140.2 239.975 140.614 239.646 140.704Z" stroke="#808181" stroke-width="0.374533" stroke-miterlimit="10"/>
<path d="M214.371 127.684L206.428 129.905C206.263 129.95 206.092 129.902 205.974 129.783L201.44 124.606C201.205 124.361 201.318 123.947 201.647 123.857L209.591 121.636C209.755 121.591 209.926 121.639 210.045 121.758L214.578 126.935C214.813 127.18 214.701 127.595 214.371 127.684Z" stroke="#808181" stroke-width="0.374533" stroke-miterlimit="10"/>
<path d="M221.035 135.757L213.092 137.978C212.927 138.023 212.756 137.975 212.638 137.856L208.104 132.679C207.869 132.434 207.982 132.02 208.311 131.93L216.255 129.709C216.419 129.664 216.59 129.712 216.709 129.831L221.242 135.008C221.478 135.254 221.365 135.668 221.035 135.757Z" stroke="#808181" stroke-width="0.374533" stroke-miterlimit="10"/>
<path d="M227.862 144.289L219.919 146.511C219.754 146.555 219.584 146.508 219.465 146.388L214.932 141.211C214.696 140.966 214.809 140.552 215.138 140.463L223.082 138.241C223.247 138.197 223.417 138.244 223.536 138.364L228.069 143.541C228.305 143.786 228.192 144.2 227.862 144.289Z" stroke="#808181" stroke-width="0.374533" stroke-miterlimit="10"/>
<path d="M195.151 123.182L187.207 125.403C187.042 125.448 186.872 125.4 186.753 125.281L182.22 120.104C181.984 119.859 182.097 119.445 182.426 119.355L190.37 117.134C190.535 117.089 190.705 117.137 190.824 117.256L195.357 122.433C195.593 122.678 195.48 123.093 195.151 123.182Z" stroke="#808181" stroke-width="0.374533" stroke-miterlimit="10"/>
<path d="M201.598 131.458L193.654 133.68C193.49 133.724 193.319 133.677 193.2 133.557L188.667 128.38C188.431 128.135 188.544 127.721 188.874 127.632L196.817 125.41C196.982 125.366 197.153 125.413 197.271 125.533L201.805 130.71C202.04 130.955 201.927 131.369 201.598 131.458Z" stroke="#808181" stroke-width="0.374533" stroke-miterlimit="10"/>
<path d="M208.261 139.53L200.317 141.751C200.153 141.796 199.982 141.748 199.863 141.629L195.33 136.452C195.094 136.206 195.207 135.792 195.537 135.703L203.48 133.482C203.645 133.437 203.816 133.485 203.934 133.604L208.468 138.781C208.703 139.026 208.59 139.44 208.261 139.53Z" stroke="#808181" stroke-width="0.374533" stroke-miterlimit="10"/>
<path d="M215.087 148.065L207.143 150.286C206.979 150.331 206.808 150.283 206.69 150.164L202.156 144.987C201.921 144.742 202.033 144.327 202.363 144.238L210.306 142.017C210.471 141.972 210.642 142.02 210.76 142.139L215.294 147.316C215.529 147.561 215.416 147.975 215.087 148.065Z" stroke="#808181" stroke-width="0.374533" stroke-miterlimit="10"/>
<path d="M182.377 126.957L174.434 129.179C174.269 129.223 174.098 129.176 173.98 129.056L169.446 123.879C169.211 123.634 169.323 123.22 169.653 123.131L177.597 120.909C177.761 120.865 177.932 120.912 178.05 121.032L182.584 126.209C182.819 126.454 182.707 126.868 182.377 126.957Z" stroke="#808181" stroke-width="0.374533" stroke-miterlimit="10"/>
<path d="M167.435 130.638L159.491 132.859C159.326 132.904 159.156 132.856 159.037 132.737L154.504 127.56C154.268 127.315 154.381 126.901 154.71 126.811L162.654 124.59C162.819 124.545 162.989 124.593 163.108 124.712L167.641 129.889C167.877 130.135 167.764 130.549 167.435 130.638Z" stroke="#808181" stroke-width="0.374533" stroke-miterlimit="10"/>
<path d="M174.678 139.101L166.734 141.322C166.57 141.367 166.399 141.319 166.28 141.2L161.747 136.023C161.511 135.778 161.624 135.364 161.954 135.274L169.897 133.053C170.062 133.008 170.233 133.056 170.351 133.175L174.885 138.352C175.12 138.597 175.007 139.012 174.678 139.101Z" stroke="#808181" stroke-width="0.374533" stroke-miterlimit="10"/>
<path d="M181.817 147.285L173.873 149.506C173.708 149.55 173.538 149.503 173.419 149.383L168.886 144.206C168.65 143.961 168.763 143.547 169.092 143.458L177.036 141.237C177.201 141.192 177.371 141.24 177.49 141.359L182.023 146.536C182.259 146.781 182.146 147.195 181.817 147.285Z" stroke="#808181" stroke-width="0.374533" stroke-miterlimit="10"/>
<path d="M189.98 155.804L182.036 158.025C181.871 158.07 181.701 158.022 181.582 157.903L177.049 152.726C176.813 152.481 176.926 152.067 177.255 151.977L185.199 149.756C185.364 149.711 185.534 149.759 185.653 149.878L190.186 155.055C190.422 155.301 190.309 155.715 189.98 155.804Z" stroke="#808181" stroke-width="0.374533" stroke-miterlimit="10"/>
<path d="M188.825 135.235L180.882 137.456C180.717 137.501 180.546 137.453 180.428 137.334L175.894 132.157C175.659 131.911 175.772 131.497 176.101 131.408L184.045 129.187C184.209 129.142 184.38 129.19 184.499 129.309L189.032 134.486C189.268 134.731 189.155 135.145 188.825 135.235Z" stroke="#808181" stroke-width="0.374533" stroke-miterlimit="10"/>
<path d="M202.316 151.839L194.373 154.061C194.208 154.105 194.037 154.058 193.919 153.938L182.33 140.189C182.094 139.944 182.207 139.53 182.536 139.44L190.48 137.219C190.645 137.175 190.815 137.222 190.934 137.342L202.523 151.091C202.758 151.336 202.646 151.75 202.316 151.839Z" stroke="#808181" stroke-width="0.374533" stroke-miterlimit="10"/>
<path d="M196.061 99.2626C195.662 100.932 197.372 102.775 199.876 103.372C202.379 103.97 204.735 103.103 205.135 101.428C205.535 99.7519 203.824 97.9155 201.32 97.3181C198.816 96.7208 196.46 97.5869 196.061 99.2626Z" stroke="#808181" stroke-width="0.374533" stroke-miterlimit="10"/>
<path d="M152.077 111.681L144.133 113.903C143.968 113.947 143.798 113.9 143.679 113.78L141.898 111.913C141.663 111.668 141.776 111.254 142.105 111.165L150.049 108.943C150.213 108.899 150.384 108.946 150.503 109.066L152.283 110.933C152.519 111.178 152.406 111.592 152.077 111.681Z" stroke="#808181" stroke-width="0.374533" stroke-miterlimit="10"/>
<path d="M193.492 100.2L185.548 102.421C185.383 102.466 185.213 102.418 185.094 102.299L183.313 100.432C183.078 100.187 183.191 99.7725 183.52 99.6831L191.464 97.4619C191.628 97.4172 191.799 97.4649 191.918 97.5842L193.698 99.4512C193.934 99.6964 193.821 100.111 193.492 100.2Z" fill="white" stroke="#124052" stroke-width="0.374533" stroke-miterlimit="10"/>
<path d="M197.602 105.569L189.658 107.79C189.494 107.835 189.323 107.787 189.205 107.668L187.424 105.801C187.188 105.556 187.301 105.142 187.63 105.052L195.574 102.831C195.739 102.786 195.909 102.834 196.028 102.953L197.809 104.82C198.044 105.066 197.931 105.48 197.602 105.569Z" fill="white" stroke="#124052" stroke-width="0.374533" stroke-miterlimit="10"/>
<path d="M201.926 110.387L193.983 112.608C193.818 112.652 193.647 112.605 193.529 112.485L191.748 110.618C191.512 110.373 191.625 109.959 191.955 109.87L199.898 107.648C200.063 107.604 200.234 107.651 200.352 107.771L202.133 109.638C202.368 109.883 202.256 110.297 201.926 110.387Z" fill="white" stroke="#124052" stroke-width="0.374533" stroke-miterlimit="10"/>
<path d="M180.215 103.61L172.272 105.831C172.107 105.876 171.936 105.828 171.818 105.709L170.037 103.842C169.802 103.597 169.914 103.183 170.244 103.093L178.187 100.872C178.352 100.827 178.523 100.875 178.641 100.994L180.422 102.861C180.658 103.107 180.545 103.521 180.215 103.61Z" fill="white" stroke="#124052" stroke-width="0.374533" stroke-miterlimit="10"/>
<path d="M184.328 108.967L176.384 111.188C176.219 111.232 176.049 111.185 175.93 111.065L174.149 109.198C173.914 108.953 174.027 108.539 174.356 108.45L182.3 106.229C182.464 106.184 182.635 106.232 182.754 106.351L184.534 108.218C184.77 108.463 184.657 108.877 184.328 108.967Z" fill="white" stroke="#124052" stroke-width="0.374533" stroke-miterlimit="10"/>
<path d="M188.654 113.783L180.71 116.004C180.545 116.049 180.375 116.001 180.256 115.882L178.476 114.015C178.24 113.77 178.353 113.356 178.682 113.266L186.626 111.045C186.79 111 186.961 111.048 187.08 111.167L188.86 113.034C189.096 113.279 188.983 113.694 188.654 113.783Z" fill="white" stroke="#124052" stroke-width="0.374533" stroke-miterlimit="10"/>
<path d="M166.944 107.012L159 109.233C158.836 109.277 158.665 109.23 158.546 109.11L156.766 107.243C156.53 106.998 156.643 106.584 156.972 106.495L164.916 104.273C165.081 104.229 165.251 104.276 165.37 104.396L167.15 106.263C167.386 106.508 167.273 106.922 166.944 107.012Z" fill="white" stroke="#124052" stroke-width="0.374533" stroke-miterlimit="10"/>
<path d="M171.056 112.369L163.113 114.59C162.948 114.635 162.777 114.587 162.659 114.468L160.878 112.601C160.642 112.356 160.755 111.941 161.085 111.852L169.028 109.631C169.193 109.586 169.363 109.634 169.482 109.753L171.263 111.62C171.498 111.865 171.386 112.28 171.056 112.369Z" fill="white" stroke="#124052" stroke-width="0.374533" stroke-miterlimit="10"/>
<path d="M175.373 117.192L167.429 119.413C167.264 119.458 167.094 119.41 166.975 119.291L165.194 117.424C164.959 117.179 165.072 116.765 165.401 116.675L173.345 114.454C173.509 114.409 173.68 114.457 173.798 114.576L175.579 116.443C175.815 116.689 175.702 117.103 175.373 117.192Z" fill="white" stroke="#124052" stroke-width="0.374533" stroke-miterlimit="10"/>
<path d="M157.105 116.117L149.161 118.338C148.997 118.383 148.826 118.335 148.707 118.216L146.927 116.349C146.691 116.104 146.804 115.69 147.133 115.6L155.077 113.379C155.242 113.334 155.412 113.382 155.531 113.501L157.312 115.368C157.547 115.613 157.434 116.028 157.105 116.117Z" fill="white" stroke="#124052" stroke-width="0.374533" stroke-miterlimit="10"/>
<path d="M161.43 120.938L153.487 123.159C153.322 123.204 153.151 123.156 153.033 123.037L151.252 121.17C151.016 120.925 151.129 120.511 151.459 120.421L159.402 118.2C159.567 118.155 159.737 118.203 159.856 118.323L161.637 120.19C161.872 120.435 161.76 120.849 161.43 120.938Z" fill="white" stroke="#124052" stroke-width="0.374533" stroke-miterlimit="10"/>
<path d="M214.662 106.774L206.718 108.995C206.553 109.04 206.383 108.992 206.264 108.873L204.483 107.006C204.248 106.761 204.361 106.347 204.69 106.257L212.634 104.036C212.798 103.991 212.969 104.039 213.087 104.158L214.868 106.025C215.104 106.271 214.991 106.685 214.662 106.774Z" fill="white" stroke="#124052" stroke-width="0.374533" stroke-miterlimit="10"/>
<path d="M208.846 118.475L200.902 120.696C200.738 120.741 200.567 120.693 200.448 120.574L195.915 115.397C195.679 115.152 195.792 114.738 196.122 114.648L204.065 112.427C204.23 112.382 204.401 112.43 204.519 112.549L209.053 117.726C209.288 117.971 209.175 118.386 208.846 118.475Z" fill="white" stroke="#124052" stroke-width="0.374533" stroke-miterlimit="10"/>
<path d="M221.721 114.982L213.777 117.203C213.613 117.248 213.442 117.2 213.323 117.081L208.79 111.904C208.554 111.659 208.667 111.244 208.997 111.155L216.94 108.934C217.105 108.889 217.276 108.937 217.394 109.056L221.928 114.233C222.163 114.478 222.05 114.892 221.721 114.982Z" fill="white" stroke="#124052" stroke-width="0.374533" stroke-miterlimit="10"/>
<path d="M228.321 122.955L220.378 125.177C220.213 125.221 220.043 125.174 219.924 125.054L215.391 119.877C215.155 119.632 215.268 119.218 215.597 119.129L223.541 116.907C223.706 116.863 223.876 116.91 223.995 117.03L228.528 122.207C228.764 122.452 228.651 122.866 228.321 122.955Z" fill="white" stroke="#124052" stroke-width="0.374533" stroke-miterlimit="10"/>
<path d="M234.236 131.359L226.292 133.58C226.127 133.625 225.957 133.577 225.838 133.458L221.305 128.281C221.069 128.035 221.182 127.621 221.511 127.532L229.455 125.311C229.62 125.266 229.79 125.314 229.909 125.433L234.442 130.61C234.678 130.855 234.565 131.269 234.236 131.359Z" fill="white" stroke="#124052" stroke-width="0.374533" stroke-miterlimit="10"/>
<path d="M240.566 139.774L232.622 141.995C232.457 142.04 232.287 141.992 232.168 141.873L227.635 136.696C227.399 136.451 227.512 136.036 227.841 135.947L235.785 133.726C235.95 133.681 236.12 133.729 236.239 133.848L240.772 139.025C241.008 139.27 240.895 139.684 240.566 139.774Z" fill="white" stroke="#124052" stroke-width="0.374533" stroke-miterlimit="10"/>
<path d="M215.292 126.755L207.349 128.976C207.184 129.021 207.013 128.973 206.895 128.854L202.361 123.677C202.126 123.432 202.239 123.018 202.568 122.928L210.512 120.707C210.676 120.663 210.847 120.71 210.965 120.83L215.499 126.007C215.734 126.252 215.622 126.666 215.292 126.755Z" fill="white" stroke="#124052" stroke-width="0.374533" stroke-miterlimit="10"/>
<path d="M221.955 134.828L214.012 137.049C213.847 137.093 213.676 137.046 213.558 136.926L209.024 131.749C208.789 131.504 208.902 131.09 209.231 131.001L217.175 128.779C217.339 128.735 217.51 128.782 217.629 128.902L222.162 134.079C222.397 134.324 222.285 134.738 221.955 134.828Z" fill="white" stroke="#124052" stroke-width="0.374533" stroke-miterlimit="10"/>
<path d="M228.782 143.36L220.839 145.581C220.674 145.626 220.503 145.578 220.385 145.459L215.851 140.282C215.616 140.036 215.729 139.622 216.058 139.533L224.002 137.312C224.166 137.267 224.337 137.315 224.456 137.434L228.989 142.611C229.225 142.856 229.112 143.27 228.782 143.36Z" fill="white" stroke="#124052" stroke-width="0.374533" stroke-miterlimit="10"/>
<path d="M196.071 122.253L188.127 124.475C187.962 124.519 187.792 124.471 187.673 124.352L183.14 119.175C182.904 118.93 183.017 118.516 183.346 118.426L191.29 116.205C191.455 116.161 191.625 116.208 191.744 116.328L196.277 121.505C196.513 121.75 196.4 122.164 196.071 122.253Z" fill="white" stroke="#124052" stroke-width="0.374533" stroke-miterlimit="10"/>
<path d="M202.518 130.529L194.574 132.75C194.409 132.795 194.239 132.747 194.12 132.628L189.587 127.451C189.351 127.205 189.464 126.791 189.793 126.702L197.737 124.481C197.902 124.436 198.072 124.484 198.191 124.603L202.724 129.78C202.96 130.025 202.847 130.439 202.518 130.529Z" fill="white" stroke="#124052" stroke-width="0.374533" stroke-miterlimit="10"/>
<path d="M209.182 138.6L201.238 140.821C201.074 140.866 200.903 140.818 200.784 140.699L196.251 135.522C196.015 135.277 196.128 134.863 196.458 134.773L204.401 132.552C204.566 132.507 204.737 132.555 204.855 132.674L209.388 137.851C209.624 138.096 209.511 138.511 209.182 138.6Z" fill="white" stroke="#124052" stroke-width="0.374533" stroke-miterlimit="10"/>
<path d="M216.007 147.136L208.063 149.357C207.899 149.402 207.728 149.354 207.61 149.235L203.076 144.058C202.841 143.813 202.953 143.399 203.283 143.309L211.226 141.088C211.391 141.043 211.562 141.091 211.68 141.21L216.214 146.387C216.449 146.633 216.336 147.047 216.007 147.136Z" fill="white" stroke="#124052" stroke-width="0.374533" stroke-miterlimit="10"/>
<path d="M183.298 126.028L175.354 128.249C175.19 128.294 175.019 128.246 174.901 128.127L170.367 122.95C170.132 122.704 170.244 122.29 170.574 122.201L178.517 119.98C178.682 119.935 178.853 119.983 178.971 120.102L183.505 125.279C183.74 125.524 183.627 125.938 183.298 126.028Z" fill="white" stroke="#124052" stroke-width="0.374533" stroke-miterlimit="10"/>
<path d="M168.355 129.708L160.411 131.93C160.246 131.974 160.076 131.927 159.957 131.807L155.424 126.63C155.188 126.385 155.301 125.971 155.63 125.882L163.574 123.66C163.739 123.616 163.909 123.663 164.028 123.783L168.561 128.96C168.797 129.205 168.684 129.619 168.355 129.708Z" fill="white" stroke="#124052" stroke-width="0.374533" stroke-miterlimit="10"/>
<path d="M175.598 138.171L167.654 140.392C167.49 140.437 167.319 140.389 167.2 140.27L162.667 135.093C162.431 134.848 162.544 134.434 162.874 134.344L170.817 132.123C170.982 132.079 171.153 132.126 171.271 132.246L175.805 137.423C176.04 137.668 175.927 138.082 175.598 138.171Z" fill="white" stroke="#124052" stroke-width="0.374533" stroke-miterlimit="10"/>
<path d="M182.737 146.356L174.794 148.577C174.629 148.622 174.459 148.574 174.34 148.455L169.807 143.278C169.571 143.033 169.684 142.618 170.013 142.529L177.957 140.308C178.122 140.263 178.292 140.311 178.411 140.43L182.944 145.607C183.18 145.852 183.067 146.266 182.737 146.356Z" fill="white" stroke="#124052" stroke-width="0.374533" stroke-miterlimit="10"/>
<path d="M190.899 154.874L182.955 157.096C182.79 157.14 182.62 157.093 182.501 156.973L177.968 151.796C177.732 151.551 177.845 151.137 178.174 151.048L186.118 148.826C186.283 148.782 186.453 148.829 186.572 148.949L191.105 154.126C191.341 154.371 191.228 154.785 190.899 154.874Z" fill="white" stroke="#124052" stroke-width="0.374533" stroke-miterlimit="10"/>
<path d="M189.745 134.306L181.802 136.527C181.637 136.572 181.466 136.524 181.348 136.405L176.814 131.228C176.579 130.983 176.692 130.569 177.021 130.479L184.965 128.258C185.129 128.213 185.3 128.261 185.419 128.38L189.952 133.557C190.187 133.802 190.075 134.217 189.745 134.306Z" fill="white" stroke="#124052" stroke-width="0.374533" stroke-miterlimit="10"/>
<path d="M203.236 150.909L195.293 153.13C195.128 153.175 194.957 153.127 194.839 153.008L183.25 139.259C183.014 139.013 183.127 138.599 183.456 138.51L191.4 136.289C191.565 136.244 191.735 136.292 191.854 136.411L203.443 150.16C203.678 150.405 203.566 150.819 203.236 150.909Z" fill="white" stroke="#124052" stroke-width="0.374533" stroke-miterlimit="10"/>
<path d="M196.981 98.333C196.582 100.002 198.292 101.845 200.796 102.442C203.299 103.04 205.655 102.174 206.055 100.498C206.455 98.8222 204.744 96.9858 202.24 96.3884C199.736 95.7911 197.38 96.6572 196.981 98.333Z" fill="#C47A2C"/>
<path d="M152.997 110.753L145.053 112.974C144.888 113.019 144.718 112.971 144.599 112.852L142.818 110.985C142.583 110.739 142.696 110.325 143.025 110.236L150.969 108.015C151.133 107.97 151.304 108.018 151.422 108.137L153.203 110.004C153.439 110.249 153.326 110.663 152.997 110.753Z" fill="white" stroke="#124052" stroke-width="0.374533" stroke-miterlimit="10"/>
<path d="M135.167 20.8414L135.169 20.8333" stroke="#124052" stroke-width="0.374533" stroke-miterlimit="10"/>
<g clip-path="url(#clip0_135_8353)">
<path d="M116.619 25.4409L151.902 28.0675C151.418 34.8278 152.306 39.9683 154.099 44.6246C155.891 49.2828 158.587 53.451 161.696 58.2584L161.764 58.3628L161.764 58.363C167.002 66.4459 172.861 75.4911 175.144 87.7697C177.419 100.006 176.144 115.475 167.117 136.414L134.658 122.367C139.917 110.176 141.405 102.247 140.508 95.7354C139.608 89.197 136.304 84.1146 132.081 77.6188L132.081 77.6181L132.081 77.6176L132.014 77.5143C124.719 66.2181 114.788 50.841 116.619 25.4409Z" fill="white" stroke="#263238" stroke-width="0.36263"/>
<path d="M154.409 52.5156L125.495 58.6822" stroke="#263238" stroke-width="0.28634" stroke-miterlimit="10"/>
<path d="M153.153 49.9355L124.141 55.6206" stroke="#263238" stroke-width="0.28634" stroke-miterlimit="10"/>
<path d="M152.155 47.2773L122.981 52.6857" stroke="#263238" stroke-width="0.28634" stroke-miterlimit="10"/>
</g>
<path d="M262.022 27.6033L206.392 49.3532C205.214 49.8139 204.632 51.1425 205.093 52.3208L217.739 84.6666C218.2 85.8448 219.528 86.4266 220.707 85.9659L276.337 64.216C277.515 63.7553 278.097 62.4267 277.636 61.2484L264.99 28.9026C264.529 27.7244 263.201 27.1426 262.022 27.6033Z" fill="#F9B974" stroke="#263238" stroke-width="0.281763" stroke-linecap="round" stroke-linejoin="round"/>
<path d="M262.32 27.4909L206.097 49.4681C205.855 49.5623 205.634 49.7033 205.447 49.8831C205.26 50.0628 205.11 50.2776 205.006 50.5154C204.902 50.7531 204.846 51.009 204.841 51.2684C204.836 51.5279 204.882 51.7857 204.977 52.0272L208.679 61.4939L268.579 38.0778L264.877 28.6111C264.783 28.3696 264.642 28.149 264.462 27.962C264.283 27.7749 264.068 27.6251 263.831 27.5211C263.593 27.417 263.338 27.3608 263.079 27.3557C262.819 27.3505 262.562 27.3964 262.32 27.4909Z" fill="#124052" stroke="#263238" stroke-width="0.281763" stroke-linecap="round" stroke-linejoin="round"/>
<path d="M236.829 70.5567C228.051 79.2999 221.581 82.6835 217.452 83.9416L217.851 84.9646C217.946 85.2064 218.087 85.4272 218.266 85.6144C218.446 85.8015 218.661 85.9514 218.899 86.0554C219.136 86.1593 219.392 86.2154 219.652 86.2203C219.911 86.2252 220.169 86.1789 220.411 86.084L276.631 64.105C276.872 64.0107 277.093 63.8697 277.28 63.69C277.468 63.5103 277.617 63.2954 277.721 63.0577C277.825 62.82 277.881 62.5641 277.886 62.3046C277.891 62.0452 277.845 61.7874 277.75 61.5459L270.572 43.1824C254.209 48.7301 251.401 56.0434 236.829 70.5567Z" fill="#263238" stroke="#263238" stroke-width="0.281763" stroke-linecap="round" stroke-linejoin="round"/>
<path d="M218.761 54.8085L213.964 56.684C213.519 56.858 213.299 57.3597 213.473 57.8047L215.266 62.3891C215.44 62.834 215.941 63.0537 216.386 62.8798L221.183 61.0043C221.628 60.8303 221.848 60.3286 221.674 59.8837L219.881 55.2992C219.707 54.8543 219.206 54.6346 218.761 54.8085Z" fill="#C47A2C" stroke="#263238" stroke-width="0.281763" stroke-linecap="round" stroke-linejoin="round"/>
<path d="M217.796 57.6477L216.597 58.1166C216.379 58.2016 216.272 58.4467 216.357 58.6641L216.8 59.7978C216.885 60.0152 217.13 60.1225 217.348 60.0375L218.547 59.5686C218.764 59.4836 218.872 59.2385 218.787 59.0211L218.344 57.8875C218.259 57.6701 218.013 57.5627 217.796 57.6477Z" fill="#C47A2C" stroke="#263238" stroke-width="0.281763" stroke-linecap="round" stroke-linejoin="round"/>
<path d="M213.427 57.6933L215.305 56.9597C215.392 56.9256 215.485 56.909 215.579 56.9109C215.672 56.9128 215.764 56.9331 215.85 56.9707C215.935 57.0083 216.013 57.0624 216.077 57.1299C216.142 57.1975 216.193 57.2772 216.226 57.3643L216.536 58.1527" stroke="#263238" stroke-width="0.281763" stroke-linecap="round" stroke-linejoin="round"/>
<path d="M219.836 55.1896L217.982 55.9129C217.806 55.9817 217.665 56.1173 217.589 56.2899C217.514 56.4626 217.509 56.6583 217.577 56.8341L217.887 57.6225" stroke="#263238" stroke-width="0.281763" stroke-linecap="round" stroke-linejoin="round"/>
<path d="M215.328 62.5526L217.206 61.819C217.293 61.785 217.372 61.7342 217.439 61.6695C217.507 61.6048 217.56 61.5275 217.598 61.4421C217.635 61.3566 217.655 61.2646 217.657 61.1714C217.659 61.0781 217.642 60.9854 217.608 60.8986L217.301 60.1094" stroke="#263238" stroke-width="0.281763" stroke-linecap="round" stroke-linejoin="round"/>
<path d="M221.738 60.0486L219.897 60.7675C219.81 60.802 219.717 60.819 219.623 60.8175C219.53 60.816 219.437 60.7961 219.352 60.7588C219.266 60.7215 219.188 60.6677 219.123 60.6003C219.059 60.533 219.008 60.4535 218.974 60.3665L218.666 59.5772" stroke="#263238" stroke-width="0.281763" stroke-linecap="round" stroke-linejoin="round"/>
<path d="M214.437 60.2436L216.635 59.3843" stroke="#263238" stroke-width="0.281763" stroke-linecap="round" stroke-linejoin="round"/>
<path d="M218.568 58.6294L220.769 57.7692" stroke="#263238" stroke-width="0.281763" stroke-linecap="round" stroke-linejoin="round"/>
<path d="M218.789 72.016C218.493 71.7797 218.273 71.4607 218.157 71.0994C217.996 70.7538 217.941 70.3684 217.997 69.9914C218.036 69.8523 218.107 69.7243 218.204 69.6172C218.301 69.5101 218.421 69.4269 218.555 69.3741C218.69 69.3213 218.835 69.3003 218.979 69.3128C219.122 69.3253 219.261 69.371 219.385 69.4462C219.665 69.6994 219.883 70.0144 220.021 70.3663C220.158 70.7182 220.212 71.0973 220.178 71.4736C220.139 71.6128 220.068 71.7411 219.971 71.8484C219.874 71.9556 219.754 72.0388 219.619 72.0914C219.484 72.144 219.339 72.1646 219.195 72.1515C219.051 72.1384 218.912 72.092 218.789 72.016ZM219.88 71.3733C219.867 70.7568 219.636 70.1649 219.227 69.7034C219.147 69.6417 219.052 69.6018 218.952 69.5877C218.851 69.5735 218.749 69.5856 218.655 69.6228C218.561 69.6599 218.478 69.7208 218.414 69.7995C218.351 69.8782 218.308 69.9721 218.292 70.072C218.3 70.6883 218.532 71.2805 218.944 71.7392C219.021 71.8067 219.115 71.8505 219.217 71.8655C219.318 71.8804 219.421 71.8659 219.515 71.8236C219.612 71.7923 219.698 71.7341 219.764 71.6556C219.829 71.5772 219.871 71.4818 219.885 71.3805L219.88 71.3733Z" fill="white" stroke="#263238" stroke-width="0.0704407" stroke-linecap="round" stroke-linejoin="round"/>
<path d="M221.435 70.9846C221.155 70.7314 220.937 70.4164 220.8 70.0645C220.662 69.7126 220.608 69.3335 220.642 68.9572C220.681 68.8179 220.751 68.6894 220.848 68.582C220.945 68.4745 221.065 68.3911 221.2 68.3382C221.335 68.2853 221.48 68.2645 221.624 68.2773C221.768 68.2901 221.907 68.3363 222.03 68.4121C222.328 68.6487 222.548 68.9688 222.663 69.3314C222.824 69.677 222.88 70.0623 222.823 70.4394C222.784 70.5785 222.713 70.7065 222.616 70.8136C222.519 70.9207 222.399 71.0039 222.265 71.0567C222.13 71.1095 221.985 71.1305 221.842 71.118C221.698 71.1055 221.559 71.0598 221.435 70.9846ZM222.523 70.3427C222.54 70.035 222.48 69.7279 222.348 69.4492C222.255 69.1556 222.092 68.8889 221.873 68.6719C221.792 68.6112 221.697 68.5722 221.597 68.5586C221.497 68.5451 221.395 68.5574 221.301 68.5944C221.207 68.6315 221.124 68.692 221.06 68.7703C220.996 68.8485 220.953 68.9419 220.935 69.0414C220.92 69.349 220.98 69.6557 221.11 69.9349C221.205 70.227 221.369 70.4922 221.587 70.7086C221.667 70.7714 221.762 70.8122 221.862 70.827C221.963 70.8418 222.065 70.8302 222.16 70.7932C222.254 70.7563 222.338 70.6953 222.401 70.6162C222.465 70.5372 222.507 70.4429 222.523 70.3427Z" fill="white" stroke="#263238" stroke-width="0.0704407" stroke-linecap="round" stroke-linejoin="round"/>
<path d="M224.076 69.9523C223.797 69.6982 223.58 69.3828 223.443 69.0309C223.306 68.6791 223.252 68.3002 223.286 67.9241C223.324 67.7847 223.395 67.6562 223.492 67.5488C223.588 67.4414 223.709 67.3579 223.843 67.305C223.978 67.2522 224.123 67.2313 224.267 67.2441C224.411 67.2569 224.55 67.3031 224.673 67.3789C224.953 67.6332 225.169 67.9484 225.307 68.3C225.444 68.6516 225.499 69.0301 225.467 69.4063C225.428 69.5461 225.358 69.6751 225.261 69.7829C225.164 69.8907 225.043 69.9745 224.908 70.0275C224.773 70.0805 224.628 70.1013 224.483 70.0882C224.339 70.0752 224.199 70.0286 224.076 69.9523ZM225.167 69.3095C225.157 68.6936 224.927 68.1016 224.517 67.6414C224.437 67.5797 224.342 67.5398 224.242 67.5255C224.141 67.5113 224.039 67.5232 223.945 67.5601C223.85 67.5969 223.767 67.6576 223.703 67.7361C223.639 67.8146 223.596 67.9084 223.579 68.0082C223.564 68.3159 223.624 68.6225 223.754 68.9017C223.846 69.195 224.01 69.4607 224.23 69.6755C224.31 69.7391 224.405 69.7806 224.506 69.7959C224.606 69.8112 224.709 69.7997 224.804 69.7626C224.899 69.7256 224.982 69.6642 225.046 69.5846C225.11 69.5051 225.151 69.4102 225.167 69.3095Z" fill="white" stroke="#263238" stroke-width="0.0704407" stroke-linecap="round" stroke-linejoin="round"/>
<path d="M226.718 68.9192C226.439 68.6649 226.223 68.3497 226.085 67.9981C225.948 67.6465 225.893 67.2679 225.925 66.8918C225.965 66.7527 226.036 66.6245 226.133 66.5173C226.23 66.4102 226.351 66.3269 226.485 66.2741C226.62 66.2212 226.765 66.2002 226.909 66.2126C227.053 66.2251 227.192 66.2706 227.316 66.3458C227.612 66.5837 227.832 66.9034 227.948 67.2651C228.111 67.6107 228.166 67.9969 228.106 68.374C228.068 68.5137 227.998 68.6426 227.901 68.7504C227.804 68.8582 227.684 68.9418 227.549 68.9948C227.414 69.0477 227.269 69.0685 227.125 69.0553C226.981 69.0422 226.841 68.9956 226.718 68.9192ZM227.809 68.2764C227.802 67.6599 227.57 67.0672 227.157 66.6092C227.08 66.5416 226.984 66.498 226.883 66.4837C226.781 66.4693 226.677 66.4848 226.584 66.5283C226.488 66.561 226.403 66.6203 226.338 66.6993C226.274 66.7784 226.233 66.874 226.221 66.9751C226.206 67.2828 226.266 67.5894 226.396 67.8686C226.489 68.1619 226.653 68.4276 226.873 68.6424C226.952 68.7059 227.047 68.7475 227.148 68.7628C227.249 68.7781 227.352 68.7666 227.447 68.7295C227.541 68.6925 227.625 68.6311 227.688 68.5515C227.752 68.472 227.794 68.3771 227.809 68.2764Z" fill="white" stroke="#263238" stroke-width="0.0704407" stroke-linecap="round" stroke-linejoin="round"/>
<path d="M232.065 66.8268C231.784 66.5736 231.567 66.2586 231.429 65.9067C231.291 65.5548 231.237 65.1757 231.272 64.7994C231.311 64.6602 231.381 64.5319 231.478 64.4247C231.575 64.3174 231.696 64.2342 231.831 64.1816C231.965 64.129 232.11 64.1084 232.254 64.1215C232.398 64.1346 232.537 64.181 232.66 64.257C232.958 64.4936 233.178 64.8137 233.293 65.1763C233.454 65.5219 233.51 65.9073 233.453 66.2843C233.414 66.4236 233.344 66.5519 233.247 66.6591C233.15 66.7664 233.029 66.8496 232.894 66.9022C232.76 66.9548 232.615 66.9754 232.471 66.9623C232.327 66.9492 232.188 66.9028 232.065 66.8268ZM233.153 66.1849C233.143 65.5682 232.912 64.9754 232.503 64.5141C232.422 64.4526 232.327 64.4129 232.226 64.3989C232.126 64.3849 232.024 64.3971 231.929 64.4342C231.835 64.4714 231.752 64.5323 231.688 64.611C231.624 64.6898 231.582 64.7837 231.565 64.8836C231.549 65.1903 231.609 65.4961 231.739 65.7744C231.834 66.0674 231.998 66.3334 232.216 66.5509C232.296 66.6136 232.391 66.6544 232.492 66.6692C232.592 66.6841 232.695 66.6724 232.789 66.6355C232.884 66.5985 232.967 66.5375 233.031 66.4585C233.094 66.3794 233.136 66.2851 233.153 66.1849Z" fill="white" stroke="#263238" stroke-width="0.0704407" stroke-linecap="round" stroke-linejoin="round"/>
<path d="M234.705 65.7952C234.426 65.5414 234.21 65.2267 234.072 64.8755C233.935 64.5243 233.88 64.1462 233.913 63.7705C233.951 63.6307 234.022 63.5017 234.119 63.3939C234.216 63.2861 234.336 63.2023 234.471 63.1493C234.606 63.0963 234.752 63.0755 234.896 63.0886C235.041 63.1016 235.18 63.1482 235.303 63.2245C235.601 63.4612 235.821 63.7813 235.936 64.1438C236.097 64.4894 236.153 64.8748 236.096 65.2519C236.057 65.3913 235.986 65.5197 235.889 65.6269C235.792 65.7342 235.671 65.8175 235.536 65.8701C235.401 65.9228 235.256 65.9435 235.112 65.9305C234.967 65.9175 234.828 65.8712 234.705 65.7952ZM235.796 65.1524C235.786 64.5357 235.555 63.9429 235.146 63.4817C235.065 63.4201 234.97 63.3804 234.869 63.3664C234.769 63.3524 234.667 63.3646 234.572 63.4018C234.478 63.4389 234.395 63.4998 234.331 63.5786C234.267 63.6573 234.224 63.7512 234.208 63.8512C234.216 64.4674 234.448 65.0597 234.859 65.5184C234.939 65.5811 235.034 65.6219 235.134 65.6368C235.235 65.6516 235.337 65.64 235.432 65.603C235.527 65.566 235.61 65.505 235.674 65.426C235.737 65.347 235.779 65.2527 235.796 65.1524Z" fill="white" stroke="#263238" stroke-width="0.0704407" stroke-linecap="round" stroke-linejoin="round"/>
<path d="M237.347 64.7615C237.05 64.5252 236.83 64.2062 236.715 63.8449C236.554 63.4993 236.498 63.1139 236.555 62.7368C236.593 62.5971 236.663 62.4683 236.76 62.3605C236.857 62.2527 236.977 62.169 237.112 62.1161C237.247 62.0631 237.392 62.0424 237.536 62.0555C237.68 62.0686 237.82 62.1153 237.943 62.1917C238.223 62.4449 238.441 62.7599 238.578 63.1118C238.716 63.4637 238.77 63.8428 238.736 64.219C238.697 64.3583 238.626 64.4866 238.529 64.5938C238.432 64.7011 238.311 64.7843 238.177 64.8369C238.042 64.8895 237.897 64.9101 237.753 64.897C237.609 64.8839 237.47 64.8375 237.347 64.7615ZM238.438 64.1187C238.429 63.5016 238.197 62.9084 237.785 62.4489C237.705 62.3872 237.61 62.3473 237.509 62.3332C237.409 62.319 237.307 62.3311 237.213 62.3683C237.119 62.4054 237.036 62.4663 236.972 62.545C236.908 62.6237 236.866 62.7176 236.85 62.8175C236.858 63.4337 237.09 64.026 237.501 64.4847C237.578 64.5522 237.673 64.596 237.774 64.611C237.876 64.6259 237.979 64.6114 238.072 64.5691C238.172 64.5396 238.262 64.4817 238.329 64.4024C238.397 64.3231 238.44 64.2259 238.454 64.1225L238.438 64.1187Z" fill="white" stroke="#263238" stroke-width="0.0704407" stroke-linecap="round" stroke-linejoin="round"/>
<path d="M239.99 63.7276C239.692 63.4923 239.472 63.173 239.358 62.811C239.196 62.4659 239.14 62.0801 239.198 61.703C239.237 61.564 239.308 61.4359 239.405 61.3288C239.502 61.2217 239.622 61.1385 239.756 61.0857C239.891 61.0329 240.036 61.0119 240.179 61.0244C240.323 61.0369 240.462 61.0826 240.586 61.1578C240.884 61.3935 241.105 61.7139 241.218 62.0771C241.381 62.4223 241.437 62.8081 241.379 63.1852C241.34 63.3244 241.269 63.4527 241.172 63.56C241.075 63.6672 240.954 63.7504 240.82 63.803C240.685 63.8556 240.54 63.8762 240.396 63.8631C240.252 63.85 240.113 63.8037 239.99 63.7276ZM241.078 63.0857C241.095 62.778 241.034 62.471 240.903 62.1922C240.81 61.8986 240.647 61.632 240.428 61.415C240.347 61.3534 240.252 61.3137 240.152 61.2997C240.051 61.2857 239.949 61.2979 239.855 61.3351C239.76 61.3722 239.677 61.4331 239.613 61.5119C239.549 61.5906 239.507 61.6845 239.49 61.7845C239.476 62.0911 239.537 62.3965 239.667 62.6744C239.759 62.9686 239.924 63.2354 240.144 63.4508C240.224 63.5137 240.319 63.5547 240.419 63.5697C240.519 63.5847 240.622 63.5731 240.716 63.5362C240.81 63.4992 240.893 63.4382 240.957 63.3592C241.02 63.2802 241.062 63.1859 241.078 63.0857Z" fill="white" stroke="#263238" stroke-width="0.0704407" stroke-linecap="round" stroke-linejoin="round"/>
<path d="M245.334 61.6406C245.037 61.4036 244.816 61.0836 244.701 60.7212C244.54 60.3756 244.485 59.9903 244.541 59.6132C244.58 59.4741 244.651 59.3459 244.748 59.2387C244.846 59.1316 244.966 59.0483 245.101 58.9955C245.235 58.9426 245.38 58.9216 245.524 58.934C245.669 58.9465 245.808 58.992 245.931 59.0672C246.228 59.3062 246.448 59.6267 246.565 59.9892C246.727 60.3349 246.781 60.721 246.723 61.0981C246.691 61.2404 246.623 61.3721 246.525 61.4804C246.428 61.5887 246.304 61.6699 246.165 61.7161C246.032 61.7765 245.885 61.8013 245.74 61.7881C245.594 61.7748 245.454 61.724 245.334 61.6406ZM246.425 60.9978C246.439 60.6902 246.379 60.3837 246.25 60.1043C246.155 59.8111 245.992 59.5447 245.775 59.3271C245.696 59.261 245.6 59.2184 245.498 59.2043C245.397 59.1901 245.293 59.2049 245.199 59.247C245.102 59.2798 245.017 59.3394 244.952 59.419C244.888 59.4987 244.848 59.5949 244.837 59.6966C244.845 60.3128 245.077 60.9051 245.488 61.3638C245.568 61.4265 245.663 61.4673 245.763 61.4821C245.864 61.497 245.966 61.4853 246.061 61.4484C246.156 61.4114 246.239 61.3504 246.303 61.2714C246.366 61.1923 246.408 61.098 246.425 60.9978Z" fill="white" stroke="#263238" stroke-width="0.0704407" stroke-linecap="round" stroke-linejoin="round"/>
<path d="M247.979 60.6054C247.682 60.3684 247.462 60.0484 247.347 59.6861C247.186 59.3405 247.13 58.9551 247.186 58.5781C247.226 58.439 247.296 58.311 247.393 58.2039C247.49 58.0968 247.61 58.0136 247.745 57.9607C247.879 57.9079 248.024 57.887 248.168 57.8995C248.312 57.912 248.451 57.9577 248.574 58.0329C248.855 58.2866 249.073 58.602 249.21 58.9543C249.348 59.3067 249.402 59.6862 249.368 60.0629C249.329 60.2022 249.258 60.3305 249.161 60.4377C249.064 60.545 248.944 60.6282 248.809 60.6808C248.674 60.7334 248.529 60.754 248.385 60.7409C248.241 60.7278 248.102 60.6814 247.979 60.6054ZM249.07 59.9626C249.085 59.655 249.024 59.3485 248.892 59.07C248.799 58.7762 248.636 58.5095 248.417 58.2927C248.337 58.231 248.242 58.1912 248.142 58.1771C248.042 58.1629 247.939 58.175 247.845 58.2121C247.751 58.2493 247.668 58.3102 247.604 58.3889C247.541 58.4676 247.499 58.5615 247.482 58.6614C247.461 58.9713 247.518 59.2815 247.648 59.5637C247.741 59.8577 247.905 60.1244 248.126 60.3401C248.206 60.4028 248.3 60.4436 248.401 60.4584C248.501 60.4733 248.604 60.4616 248.698 60.4247C248.793 60.3877 248.876 60.3267 248.94 60.2477C249.004 60.1686 249.046 60.0744 249.062 59.9741L249.07 59.9626Z" fill="white" stroke="#263238" stroke-width="0.0704407" stroke-linecap="round" stroke-linejoin="round"/>
<path d="M250.609 59.5776C250.329 59.3244 250.111 59.0093 249.973 58.6575C249.836 58.3056 249.782 57.9265 249.816 57.5502C249.848 57.4079 249.916 57.2762 250.013 57.1679C250.111 57.0596 250.235 56.9784 250.373 56.9322C250.506 56.8716 250.653 56.8464 250.798 56.8592C250.944 56.8719 251.083 56.9222 251.204 57.005C251.483 57.2598 251.7 57.5754 251.838 57.9274C251.975 58.2795 252.03 58.6585 251.998 59.0351C251.959 59.1743 251.888 59.3027 251.791 59.4099C251.694 59.5171 251.574 59.6003 251.439 59.6529C251.304 59.7055 251.159 59.7261 251.015 59.713C250.871 59.6999 250.732 59.6536 250.609 59.5776ZM251.697 58.9356C251.713 58.628 251.653 58.321 251.522 58.0422C251.429 57.7484 251.266 57.4816 251.047 57.2649C250.966 57.2033 250.871 57.1636 250.771 57.1496C250.67 57.1357 250.568 57.1478 250.474 57.185C250.379 57.2222 250.296 57.283 250.232 57.3618C250.168 57.4405 250.126 57.5344 250.109 57.6344C250.094 57.9411 250.153 58.2468 250.283 58.5252C250.379 58.8181 250.542 59.0842 250.761 59.3016C250.841 59.3643 250.935 59.4051 251.036 59.42C251.136 59.4348 251.239 59.4232 251.334 59.3862C251.428 59.3492 251.511 59.2882 251.575 59.2092C251.639 59.1302 251.681 59.0359 251.697 58.9356Z" fill="white" stroke="#263238" stroke-width="0.0704407" stroke-linecap="round" stroke-linejoin="round"/>
<path d="M253.259 58.5416C252.98 58.2875 252.763 57.9721 252.626 57.6202C252.489 57.2684 252.435 56.8895 252.469 56.5134C252.508 56.3741 252.578 56.2458 252.675 56.1386C252.772 56.0313 252.893 55.9481 253.028 55.8955C253.162 55.8429 253.307 55.8223 253.451 55.8354C253.595 55.8485 253.734 55.8949 253.857 55.9709C254.155 56.2075 254.375 56.5276 254.49 56.8902C254.651 57.2358 254.707 57.6212 254.65 57.9982C254.611 58.1376 254.54 58.266 254.443 58.3733C254.346 58.4806 254.225 58.5638 254.09 58.6165C253.955 58.6692 253.81 58.6898 253.666 58.6768C253.522 58.6638 253.382 58.6175 253.259 58.5416ZM254.35 57.8988C254.34 57.2821 254.109 56.6893 253.7 56.228C253.619 56.1665 253.524 56.1268 253.424 56.1128C253.323 56.0988 253.221 56.111 253.126 56.1482C253.032 56.1853 252.949 56.2462 252.885 56.3249C252.821 56.4037 252.779 56.4976 252.762 56.5975C252.77 57.2138 253.002 57.8061 253.414 58.2648C253.493 58.3275 253.588 58.3683 253.689 58.3831C253.789 58.398 253.892 58.3863 253.986 58.3494C254.081 58.3124 254.164 58.2514 254.228 58.1724C254.292 58.0933 254.334 57.999 254.35 57.8988Z" fill="white" stroke="#263238" stroke-width="0.0704407" stroke-linecap="round" stroke-linejoin="round"/>
<path d="M258.607 56.4517C258.309 56.2156 258.088 55.8953 257.974 55.5324C257.813 55.1867 257.757 54.8014 257.814 54.4243C257.846 54.2815 257.914 54.1494 258.012 54.041C258.11 53.9325 258.235 53.8514 258.374 53.8055C258.506 53.7455 258.652 53.7207 258.797 53.7336C258.942 53.7465 259.082 53.7966 259.202 53.8792C259.482 54.1328 259.7 54.4483 259.838 54.8006C259.976 55.1529 260.03 55.5324 259.995 55.9092C259.957 56.0485 259.886 56.1768 259.789 56.284C259.692 56.3912 259.571 56.4744 259.437 56.527C259.302 56.5796 259.157 56.6002 259.013 56.5871C258.869 56.5741 258.73 56.5277 258.607 56.4517ZM259.697 55.8089C259.685 55.1933 259.454 54.6023 259.046 54.1417C258.965 54.08 258.87 54.0401 258.77 54.026C258.67 54.0119 258.568 54.024 258.474 54.0611C258.379 54.0982 258.296 54.1591 258.233 54.2378C258.169 54.3166 258.127 54.4105 258.11 54.5103C258.093 54.8171 258.153 55.1233 258.284 55.4011C258.377 55.6944 258.541 55.9601 258.761 56.1749C258.838 56.2426 258.933 56.2868 259.034 56.3023C259.136 56.3177 259.239 56.3037 259.333 56.262C259.43 56.2296 259.516 56.1704 259.581 56.0911C259.646 56.0119 259.687 55.9159 259.699 55.8143L259.697 55.8089Z" fill="white" stroke="#263238" stroke-width="0.0704407" stroke-linecap="round" stroke-linejoin="round"/>
<path d="M261.25 55.419C260.969 55.1658 260.752 54.8508 260.614 54.499C260.476 54.1471 260.422 53.768 260.457 53.3917C260.488 53.2494 260.556 53.1177 260.654 53.0094C260.752 52.9011 260.876 52.8199 261.014 52.7737C261.147 52.7131 261.293 52.6879 261.439 52.7007C261.584 52.7134 261.724 52.7637 261.844 52.8465C262.124 53.1013 262.34 53.4169 262.478 53.7689C262.616 54.121 262.671 54.5 262.638 54.8766C262.599 55.0158 262.529 55.1441 262.432 55.2514C262.335 55.3586 262.214 55.4418 262.079 55.4944C261.945 55.547 261.8 55.5676 261.656 55.5545C261.512 55.5414 261.373 55.4951 261.25 55.419ZM262.338 54.7771C262.328 54.1613 262.098 53.5693 261.688 53.1091C261.608 53.0475 261.513 53.0078 261.412 52.9938C261.312 52.9798 261.209 52.992 261.115 53.0292C261.021 53.0663 260.938 53.1272 260.874 53.206C260.81 53.2847 260.767 53.3786 260.75 53.4786C260.735 53.7853 260.795 54.0911 260.924 54.3694C261.021 54.6619 261.184 54.9278 261.402 55.1458C261.48 55.2127 261.575 55.2561 261.677 55.2709C261.778 55.2857 261.882 55.2713 261.976 55.2293C262.073 55.1972 262.158 55.1381 262.223 55.059C262.287 54.9798 262.328 54.8839 262.339 54.7825L262.338 54.7771Z" fill="white" stroke="#263238" stroke-width="0.0704407" stroke-linecap="round" stroke-linejoin="round"/>
<path d="M263.892 54.3937C263.612 54.1397 263.395 53.8243 263.258 53.4724C263.121 53.1205 263.067 52.7417 263.101 52.3655C263.133 52.2232 263.201 52.0915 263.298 51.9832C263.396 51.8749 263.52 51.7938 263.658 51.7476C263.791 51.6869 263.938 51.6617 264.083 51.6745C264.229 51.6873 264.369 51.7375 264.489 51.8204C264.768 52.0751 264.985 52.3907 265.123 52.7428C265.26 53.0948 265.315 53.4738 265.283 53.8504C265.244 53.9898 265.173 54.1182 265.075 54.2255C264.978 54.3328 264.857 54.416 264.722 54.4687C264.588 54.5214 264.442 54.542 264.298 54.529C264.154 54.516 264.015 54.4697 263.892 54.3937ZM264.982 53.751C264.972 53.1342 264.742 52.5415 264.332 52.0802C264.251 52.0187 264.156 51.979 264.056 51.965C263.955 51.951 263.853 51.9632 263.759 52.0003C263.664 52.0375 263.581 52.0984 263.517 52.1771C263.453 52.2559 263.411 52.3498 263.394 52.4497C263.403 53.066 263.634 53.6582 264.046 54.1169C264.126 54.1797 264.221 54.2205 264.321 54.2353C264.421 54.2501 264.524 54.2385 264.619 54.2015C264.713 54.1646 264.796 54.1036 264.86 54.0245C264.924 53.9455 264.966 53.8512 264.982 53.751Z" fill="white" stroke="#263238" stroke-width="0.0704407" stroke-linecap="round" stroke-linejoin="round"/>
<path d="M266.532 53.3535C266.235 53.1165 266.015 52.7965 265.9 52.4341C265.739 52.0885 265.683 51.7032 265.739 51.3261C265.778 51.1871 265.849 51.059 265.946 50.9519C266.043 50.8448 266.163 50.7616 266.298 50.7088C266.432 50.656 266.577 50.635 266.721 50.6475C266.865 50.6601 267.004 50.7057 267.127 50.7809C267.408 51.0346 267.625 51.3501 267.763 51.7024C267.901 52.0547 267.955 52.4342 267.921 52.811C267.889 52.9533 267.821 53.085 267.723 53.1933C267.626 53.3016 267.502 53.3828 267.363 53.4289C267.23 53.4894 267.084 53.5142 266.938 53.501C266.792 53.4877 266.652 53.4369 266.532 53.3535ZM267.623 52.7107C267.614 52.0935 267.382 51.5003 266.97 51.0408C266.89 50.9791 266.795 50.9392 266.695 50.9251C266.594 50.911 266.492 50.9231 266.398 50.9602C266.304 50.9973 266.221 51.0582 266.157 51.1369C266.094 51.2157 266.051 51.3096 266.035 51.4094C266.043 52.0257 266.275 52.6179 266.687 53.0766C266.766 53.1394 266.861 53.1802 266.962 53.195C267.062 53.2098 267.165 53.1982 267.259 53.1612C267.354 53.1243 267.437 53.0633 267.501 52.9842C267.565 52.9052 267.607 52.8109 267.623 52.7107Z" fill="white" stroke="#263238" stroke-width="0.0704407" stroke-linecap="round" stroke-linejoin="round"/>
<path d="M268.917 63.5938C269.316 63.4438 269.681 63.2161 269.991 62.9238C270.301 62.6315 270.55 62.2806 270.723 61.8913C270.897 61.502 270.991 61.0822 271.001 60.6562C271.011 60.2302 270.936 59.8064 270.781 59.4096C270.625 59.0128 270.393 58.6507 270.096 58.3445C269.8 58.0383 269.446 57.7939 269.054 57.6257C268.663 57.4575 268.242 57.3687 267.816 57.3645C267.39 57.3603 266.967 57.4408 266.572 57.6013L262.501 59.1926C261.706 59.5033 261.067 60.1171 260.724 60.8991C260.382 61.681 260.364 62.567 260.675 63.3621C260.985 64.1572 261.599 64.7964 262.381 65.1389C263.163 65.4814 264.049 65.4993 264.844 65.1886L268.917 63.5938Z" fill="#C47A2C"/>
<path d="M20.805 106.841L42.1539 124.665L78.3461 81.5319L56.9973 63.7079L20.805 106.841Z" fill="#C47A2C" stroke="#263238" stroke-width="0.301442" stroke-miterlimit="10"/>
<path d="M54.6566 70.7209C54.9957 71.0046 55.3875 71.2186 55.8095 71.3505C56.2315 71.4825 56.6753 71.5298 57.1157 71.4898C57.556 71.4497 57.9841 71.3231 58.3753 71.1173C58.7666 70.9114 59.1134 70.6303 59.3957 70.29C59.4827 70.1829 59.5638 70.0712 59.6386 69.9553L71.8825 80.1827C71.7797 80.2754 71.6834 80.3751 71.5943 80.4811C71.0242 81.1641 70.7486 82.0456 70.8283 82.9317C70.908 83.8179 71.3364 84.6361 72.0193 85.2064C72.072 85.2514 72.1273 85.2933 72.185 85.3318L44.8054 117.925L44.6526 117.784C43.9697 117.214 43.0882 116.939 42.202 117.018C41.3159 117.098 40.4977 117.526 39.9274 118.209C39.8382 118.316 39.7566 118.43 39.6829 118.548L27.426 108.313C27.5279 108.219 27.6242 108.12 27.7141 108.015C27.9975 107.675 28.2111 107.284 28.3428 106.862C28.4746 106.44 28.5218 105.996 28.4817 105.556C28.4417 105.115 28.3152 104.687 28.1096 104.296C27.9039 103.905 27.6231 103.558 27.2832 103.276C27.1764 103.187 27.0637 103.107 26.9457 103.034L54.3665 70.4292C54.4564 70.5329 54.5534 70.6304 54.6566 70.7209ZM46.128 98.632C46.9629 99.3285 47.9857 99.7619 49.0669 99.8772C50.1481 99.9925 51.2393 99.7847 52.2024 99.2799C53.1655 98.7752 53.9573 97.9962 54.4777 97.0415C54.9982 96.0868 55.2238 94.9992 55.1262 93.9162C55.0286 92.8333 54.612 91.8036 53.9292 90.9573C53.2465 90.1111 52.3281 89.4863 51.2902 89.1619C50.2524 88.8376 49.1417 88.8282 48.0985 89.1351C47.0553 89.4419 46.1266 90.0512 45.4297 90.8858C44.4955 92.0058 44.0443 93.4509 44.1752 94.9035C44.3062 96.356 45.0086 97.6971 46.128 98.632Z" fill="white" stroke="#263238" stroke-width="0.301442" stroke-linecap="round" stroke-linejoin="round"/>
<path d="M20.843 107.203L43.9949 122.61L75.3079 75.8113L52.1559 60.4043L20.843 107.203Z" fill="#C47A2C" stroke="#263238" stroke-width="0.301442" stroke-miterlimit="10"/>
<path d="M50.5871 67.6285C51.3281 68.1214 52.2344 68.3001 53.107 68.1252C53.9796 67.9504 54.7471 67.4363 55.2409 66.6959C55.3156 66.5792 55.3841 66.4586 55.4462 66.3348L68.7411 75.1791C68.6499 75.2841 68.5648 75.3942 68.4863 75.5091C68.2405 75.8754 68.0694 76.2865 67.9827 76.719C67.896 77.1514 67.8954 77.5968 67.981 78.0295C68.0666 78.4622 68.2367 78.8737 68.4815 79.2406C68.7263 79.6075 69.0411 79.9226 69.4078 80.1677C69.4637 80.2059 69.5267 80.2378 69.5854 80.2749L45.9034 115.622C45.8491 115.58 45.7948 115.538 45.7361 115.501C45.3686 115.255 44.9562 115.084 44.5224 114.998C44.0887 114.912 43.6422 114.912 43.2087 114.999C42.7752 115.087 42.3632 115.258 41.9963 115.505C41.6295 115.752 41.3151 116.069 41.0712 116.438C40.9948 116.555 40.9254 116.676 40.8632 116.8L27.571 107.955C27.6617 107.849 27.7467 107.739 27.8258 107.625C28.3181 106.884 28.4962 105.977 28.3208 105.105C28.1454 104.233 27.631 103.466 26.8905 102.972C26.7738 102.898 26.6532 102.829 26.5294 102.767L50.2583 67.3764C50.3629 67.4667 50.4727 67.5509 50.5871 67.6285ZM45.1281 96.2991C46.0337 96.9023 47.0979 97.2234 48.186 97.2217C49.2742 97.2201 50.3374 96.8958 51.2412 96.2899C52.145 95.684 52.8489 94.8236 53.2637 93.8176C53.6785 92.8117 53.7857 91.7053 53.5716 90.6384C53.3576 89.5715 52.832 88.592 52.0613 87.8239C51.2906 87.0558 50.3094 86.5334 49.2418 86.323C48.1742 86.1125 47.0681 86.2234 46.0636 86.6416C45.059 87.0598 44.201 87.7665 43.5981 88.6723C42.7899 89.8867 42.497 91.3723 42.7839 92.8025C43.0709 94.2327 43.914 95.4904 45.1281 96.2991Z" fill="white" stroke="#263238" stroke-width="0.301442" stroke-linecap="round" stroke-linejoin="round"/>
<path d="M20.949 107.652L46.0131 119.709L70.5432 69.0259L45.483 56.9711L20.949 107.652Z" fill="#C47A2C" stroke="#263238" stroke-width="0.301442" stroke-miterlimit="10"/>
<path d="M44.9309 64.3439C45.3591 64.5518 45.8268 64.6658 46.3027 64.6784C46.7786 64.6909 47.2516 64.6017 47.6903 64.4166C48.1289 64.2316 48.5229 63.955 48.846 63.6054C49.1691 63.2558 49.4138 62.8412 49.5637 62.3894L63.9522 69.3102C63.8768 69.4265 63.8082 69.5471 63.7469 69.6714C63.5556 70.0686 63.4444 70.4997 63.4198 70.9399C63.3952 71.3801 63.4575 71.8209 63.6034 72.237C63.7492 72.6531 63.9756 73.0363 64.2696 73.3649C64.5637 73.6934 64.9196 73.9608 65.3171 74.1517C65.3828 74.1824 65.4462 74.2075 65.5096 74.2327L46.9338 112.524C46.8735 112.491 46.8149 112.454 46.7503 112.426C46.322 112.218 45.8543 112.104 45.3784 112.091C44.9025 112.079 44.4295 112.168 43.9909 112.353C43.5523 112.538 43.1582 112.814 42.8351 113.164C42.5121 113.514 42.2674 113.928 42.1174 114.38L27.729 107.459C27.8039 107.343 27.8724 107.222 27.9342 107.098C28.1467 106.671 28.2644 106.202 28.2792 105.725C28.2941 105.248 28.2057 104.773 28.0201 104.333C27.8345 103.893 27.5561 103.499 27.204 103.176C26.8518 102.854 26.4342 102.611 25.9797 102.465L44.5642 64.141C44.6814 64.2174 44.8039 64.2852 44.9309 64.3439ZM43.4903 93.4924C44.4708 93.9643 45.5692 94.1348 46.6466 93.9824C47.724 93.83 48.7321 93.3615 49.5432 92.6361C50.3543 91.9108 50.9321 90.9612 51.2035 89.9074C51.4749 88.8537 51.4277 87.7431 51.0679 86.7162C50.7081 85.6892 50.0518 84.7921 49.182 84.1381C48.3123 83.4842 47.2681 83.1029 46.1817 83.0425C45.0952 82.9821 44.0152 83.2452 43.0783 83.7986C42.1414 84.352 41.3896 85.1708 40.9181 86.1515C40.6047 86.8023 40.4227 87.5086 40.3823 88.2298C40.342 88.9511 40.4442 89.6732 40.6831 90.3549C40.9219 91.0366 41.2928 91.6646 41.7745 92.203C42.2562 92.7413 42.8392 93.1795 43.4903 93.4924Z" fill="white" stroke="#263238" stroke-width="0.301442" stroke-linecap="round" stroke-linejoin="round"/>
<path d="M19.7181 108.253L46.1645 116.849L63.7022 63.341L37.2531 54.7458L19.7181 108.253Z" fill="#C47A2C" stroke="#263238" stroke-width="0.301442" stroke-miterlimit="10"/>
<path d="M37.686 62.1147C38.5324 62.389 39.453 62.3162 40.2457 61.9123C41.0385 61.5085 41.6385 60.8065 41.9142 59.9606C41.9566 59.828 41.9903 59.6928 42.0152 59.5558L57.201 64.4907C56.9952 64.9204 56.8839 65.3893 56.8746 65.8657C56.8653 66.342 56.9582 66.8149 57.1471 67.2523C57.336 67.6897 57.6165 68.0816 57.9696 68.4015C58.3227 68.7214 58.7403 68.9619 59.1942 69.1068C59.2632 69.1295 59.3285 69.144 59.395 69.1612L46.1195 109.606C46.0533 109.582 45.9915 109.553 45.9237 109.533C45.5047 109.397 45.0629 109.344 44.6236 109.379C44.1843 109.413 43.7561 109.534 43.3635 109.734C42.9708 109.934 42.6215 110.21 42.3353 110.545C42.0491 110.88 41.8317 111.268 41.6956 111.687C41.654 111.819 41.6198 111.953 41.5934 112.089L26.4076 107.154C26.4693 107.026 26.5218 106.894 26.5648 106.758C26.7015 106.339 26.7541 105.897 26.7198 105.458C26.6855 105.018 26.5648 104.59 26.3647 104.197C26.1646 103.804 25.8891 103.455 25.5538 103.169C25.2185 102.883 24.8301 102.666 24.4108 102.53C24.279 102.487 24.1448 102.453 24.0087 102.428L37.3072 61.9597C37.4303 62.0189 37.5568 62.0706 37.686 62.1147ZM40.1583 91.1924C41.1925 91.5281 42.303 91.5497 43.3495 91.2544C44.3959 90.959 45.3313 90.36 46.0374 89.5331C46.7435 88.7063 47.1885 87.6886 47.3163 86.6088C47.444 85.529 47.2487 84.4355 46.7551 83.4667C46.2615 82.4978 45.4917 81.6971 44.5431 81.1657C43.5944 80.6344 42.5095 80.3962 41.4255 80.4813C40.3415 80.5665 39.3071 80.9711 38.453 81.6441C37.599 82.3171 36.9636 83.2281 36.6273 84.2622C36.4024 84.9503 36.3155 85.6761 36.3716 86.3979C36.4277 87.1197 36.6257 87.8233 36.9543 88.4684C37.2828 89.1135 37.7355 89.6874 38.2864 90.1573C38.8372 90.6271 39.4754 90.9835 40.1642 91.2062L40.1583 91.1924Z" fill="white" stroke="#263238" stroke-width="0.301442" stroke-linecap="round" stroke-linejoin="round"/>
<path d="M121.922 139.22V138.189" stroke="#263238" stroke-width="0.377455" stroke-miterlimit="10"/>
<path d="M92.6875 139.507V138.076" stroke="#263238" stroke-width="0.377455" stroke-miterlimit="10"/>
<path d="M93.6611 137.102V138.532" stroke="#263238" stroke-width="0.377455" stroke-miterlimit="10"/>
<path d="M120.777 137.219V138.589" stroke="#263238" stroke-width="0.377455" stroke-miterlimit="10"/>
<path d="M119.291 137.219V138.532" stroke="#263238" stroke-width="0.377455" stroke-miterlimit="10"/>
<path d="M115.629 137.158V138.819" stroke="#263238" stroke-width="0.377455" stroke-miterlimit="10"/>
<path d="M96.0049 137.332V138.076" stroke="#263238" stroke-width="0.377455" stroke-miterlimit="10"/>
<path d="M96.579 139.046V137.732" stroke="#263238" stroke-width="0.377455" stroke-miterlimit="10"/>
<path d="M100.641 137.158V138.819" stroke="#263238" stroke-width="0.377455" stroke-miterlimit="10"/>
<path d="M107.789 137.332V138.476" stroke="#263238" stroke-width="0.377455" stroke-miterlimit="10"/>
<path d="M124.201 141.484V140.454" stroke="#263238" stroke-width="0.377455" stroke-miterlimit="10"/>
<path d="M125.099 139.265H93.5743V141.567H125.099V139.265Z" fill="white" stroke="#263238" stroke-width="0.377455" stroke-miterlimit="10"/>
<path d="M94.9668 141.767V140.337" stroke="#263238" stroke-width="0.377455" stroke-miterlimit="10"/>
<path d="M95.9414 139.366V140.797" stroke="#263238" stroke-width="0.377455" stroke-miterlimit="10"/>
<path d="M123.054 139.48V140.854" stroke="#263238" stroke-width="0.377455" stroke-miterlimit="10"/>
<path d="M121.566 139.48V140.798" stroke="#263238" stroke-width="0.377455" stroke-miterlimit="10"/>
<path d="M117.905 139.423V141.084" stroke="#263238" stroke-width="0.377455" stroke-miterlimit="10"/>
<path d="M98.2852 139.593V140.336" stroke="#263238" stroke-width="0.377455" stroke-miterlimit="10"/>
<path d="M98.8584 141.311V139.997" stroke="#263238" stroke-width="0.377455" stroke-miterlimit="10"/>
<path d="M102.92 139.423V141.084" stroke="#263238" stroke-width="0.377455" stroke-miterlimit="10"/>
<path d="M110.069 139.593V140.74" stroke="#263238" stroke-width="0.377455" stroke-miterlimit="10"/>
<path d="M123.4 143.745V142.715" stroke="#263238" stroke-width="0.377455" stroke-miterlimit="10"/>
<path d="M94.1671 144.032V142.602" stroke="#263238" stroke-width="0.377455" stroke-miterlimit="10"/>
<path d="M95.1406 141.631V143.058" stroke="#263238" stroke-width="0.377455" stroke-miterlimit="10"/>
<path d="M122.258 141.744V143.118" stroke="#263238" stroke-width="0.377455" stroke-miterlimit="10"/>
<path d="M120.766 141.744V143.058" stroke="#263238" stroke-width="0.377455" stroke-miterlimit="10"/>
<path d="M117.109 141.688V143.345" stroke="#263238" stroke-width="0.377455" stroke-miterlimit="10"/>
<path d="M97.4844 141.857V142.601" stroke="#263238" stroke-width="0.377455" stroke-miterlimit="10"/>
<path d="M98.0586 143.575V142.258" stroke="#263238" stroke-width="0.377455" stroke-miterlimit="10"/>
<path d="M102.12 141.688V143.345" stroke="#263238" stroke-width="0.377455" stroke-miterlimit="10"/>
<path d="M109.27 141.857V143.001" stroke="#263238" stroke-width="0.377455" stroke-miterlimit="10"/>
<path d="M124.201 146.01V144.979" stroke="#263238" stroke-width="0.377455" stroke-miterlimit="10"/>
<path d="M94.9707 146.297V144.866" stroke="#263238" stroke-width="0.377455" stroke-miterlimit="10"/>
<path d="M95.9453 143.893V145.323" stroke="#263238" stroke-width="0.377455" stroke-miterlimit="10"/>
<path d="M123.058 144.01V145.38" stroke="#263238" stroke-width="0.377455" stroke-miterlimit="10"/>
<path d="M121.57 144.01V145.323" stroke="#263238" stroke-width="0.377455" stroke-miterlimit="10"/>
<path d="M117.909 143.949V145.61" stroke="#263238" stroke-width="0.377455" stroke-miterlimit="10"/>
<path d="M98.2891 144.123V144.867" stroke="#263238" stroke-width="0.377455" stroke-miterlimit="10"/>
<path d="M98.8623 145.836V144.522" stroke="#263238" stroke-width="0.377455" stroke-miterlimit="10"/>
<path d="M102.924 143.949V145.61" stroke="#263238" stroke-width="0.377455" stroke-miterlimit="10"/>
<path d="M110.072 144.123V145.267" stroke="#263238" stroke-width="0.377455" stroke-miterlimit="10"/>
<path d="M121.922 148.275V147.244" stroke="#263238" stroke-width="0.377455" stroke-miterlimit="10"/>
<path d="M92.6875 148.558V147.127" stroke="#263238" stroke-width="0.377455" stroke-miterlimit="10"/>
<path d="M93.6611 146.157V147.588" stroke="#263238" stroke-width="0.377455" stroke-miterlimit="10"/>
<path d="M120.777 146.27V147.643" stroke="#263238" stroke-width="0.377455" stroke-miterlimit="10"/>
<path d="M119.291 146.27V147.587" stroke="#263238" stroke-width="0.377455" stroke-miterlimit="10"/>
<path d="M115.629 146.214V147.875" stroke="#263238" stroke-width="0.377455" stroke-miterlimit="10"/>
<path d="M96.0049 146.384V147.127" stroke="#263238" stroke-width="0.377455" stroke-miterlimit="10"/>
<path d="M96.5791 148.101V146.787" stroke="#263238" stroke-width="0.377455" stroke-miterlimit="10"/>
<path d="M100.641 146.214V147.874" stroke="#263238" stroke-width="0.377455" stroke-miterlimit="10"/>
<path d="M107.789 146.384V147.531" stroke="#263238" stroke-width="0.377455" stroke-miterlimit="10"/>
<path d="M121.922 150.535V149.505" stroke="#263238" stroke-width="0.377455" stroke-miterlimit="10"/>
<path d="M122.82 148.316H91.2949V150.619H122.82V148.316Z" fill="white" stroke="#263238" stroke-width="0.377455" stroke-miterlimit="10"/>
<path d="M92.6875 150.822V149.392" stroke="#263238" stroke-width="0.377455" stroke-miterlimit="10"/>
<path d="M93.6611 148.418V149.849" stroke="#263238" stroke-width="0.377455" stroke-miterlimit="10"/>
<path d="M120.777 148.535V149.909" stroke="#263238" stroke-width="0.377455" stroke-miterlimit="10"/>
<path d="M119.291 148.535V149.849" stroke="#263238" stroke-width="0.377455" stroke-miterlimit="10"/>
<path d="M115.629 148.479V150.136" stroke="#263238" stroke-width="0.377455" stroke-miterlimit="10"/>
<path d="M96.0049 148.648V149.392" stroke="#263238" stroke-width="0.377455" stroke-miterlimit="10"/>
<path d="M100.641 148.479V150.136" stroke="#263238" stroke-width="0.377455" stroke-miterlimit="10"/>
<path d="M107.789 148.648V149.792" stroke="#263238" stroke-width="0.377455" stroke-miterlimit="10"/>
<path d="M121.921 152.8V151.77" stroke="#263238" stroke-width="0.377455" stroke-miterlimit="10"/>
<path d="M92.6875 153.087V151.656" stroke="#263238" stroke-width="0.377455" stroke-miterlimit="10"/>
<path d="M93.6611 150.683V152.113" stroke="#263238" stroke-width="0.377455" stroke-miterlimit="10"/>
<path d="M120.777 150.796V152.17" stroke="#263238" stroke-width="0.377455" stroke-miterlimit="10"/>
<path d="M119.291 150.796V152.113" stroke="#263238" stroke-width="0.377455" stroke-miterlimit="10"/>
<path d="M115.629 150.739V152.4" stroke="#263238" stroke-width="0.377455" stroke-miterlimit="10"/>
<path d="M96.0049 150.913V151.657" stroke="#263238" stroke-width="0.377455" stroke-miterlimit="10"/>
<path d="M96.5791 152.627V151.313" stroke="#263238" stroke-width="0.377455" stroke-miterlimit="10"/>
<path d="M100.641 150.739V152.4" stroke="#263238" stroke-width="0.377455" stroke-miterlimit="10"/>
<path d="M107.789 150.913V152.057" stroke="#263238" stroke-width="0.377455" stroke-miterlimit="10"/>
<path d="M124.387 155.065V154.034" stroke="#263238" stroke-width="0.377455" stroke-miterlimit="10"/>
<path d="M95.1562 155.349V153.918" stroke="#263238" stroke-width="0.377455" stroke-miterlimit="10"/>
<path d="M96.1261 152.947V154.378" stroke="#263238" stroke-width="0.377455" stroke-miterlimit="10"/>
<path d="M123.242 153.061V154.434" stroke="#263238" stroke-width="0.377455" stroke-miterlimit="10"/>
<path d="M121.755 153.061V154.378" stroke="#263238" stroke-width="0.377455" stroke-miterlimit="10"/>
<path d="M118.094 153.004V154.661" stroke="#263238" stroke-width="0.377455" stroke-miterlimit="10"/>
<path d="M98.4738 153.174V153.918" stroke="#263238" stroke-width="0.377455" stroke-miterlimit="10"/>
<path d="M99.0439 154.892V153.578" stroke="#263238" stroke-width="0.377455" stroke-miterlimit="10"/>
<path d="M103.105 153.004V154.661" stroke="#263238" stroke-width="0.377455" stroke-miterlimit="10"/>
<path d="M110.258 153.174V154.321" stroke="#263238" stroke-width="0.377455" stroke-miterlimit="10"/>
<path d="M125.246 157.326V156.296" stroke="#263238" stroke-width="0.377455" stroke-miterlimit="10"/>
<path d="M96.0167 157.613V156.182" stroke="#263238" stroke-width="0.377455" stroke-miterlimit="10"/>
<path d="M96.9902 155.209V156.64" stroke="#263238" stroke-width="0.377455" stroke-miterlimit="10"/>
<path d="M124.104 155.325V156.699" stroke="#263238" stroke-width="0.377455" stroke-miterlimit="10"/>
<path d="M122.616 155.325V156.639" stroke="#263238" stroke-width="0.377455" stroke-miterlimit="10"/>
<path d="M118.955 155.269V156.926" stroke="#263238" stroke-width="0.377455" stroke-miterlimit="10"/>
<path d="M99.335 155.438V156.182" stroke="#263238" stroke-width="0.377455" stroke-miterlimit="10"/>
<path d="M99.9082 157.156V155.839" stroke="#263238" stroke-width="0.377455" stroke-miterlimit="10"/>
<path d="M103.97 155.269V156.926" stroke="#263238" stroke-width="0.377455" stroke-miterlimit="10"/>
<path d="M111.118 155.438V156.582" stroke="#263238" stroke-width="0.377455" stroke-miterlimit="10"/>
<path d="M124.205 159.591V158.561" stroke="#263238" stroke-width="0.377455" stroke-miterlimit="10"/>
<path d="M125.103 157.371H93.5782V159.674H125.103V157.371Z" fill="white" stroke="#263238" stroke-width="0.377455" stroke-miterlimit="10"/>
<path d="M94.9746 159.878V158.447" stroke="#263238" stroke-width="0.377455" stroke-miterlimit="10"/>
<path d="M123.062 157.587V158.961" stroke="#263238" stroke-width="0.377455" stroke-miterlimit="10"/>
<path d="M121.574 157.587V158.904" stroke="#263238" stroke-width="0.377455" stroke-miterlimit="10"/>
<path d="M117.912 157.529V159.19" stroke="#263238" stroke-width="0.377455" stroke-miterlimit="10"/>
<path d="M98.293 157.703V158.447" stroke="#263238" stroke-width="0.377455" stroke-miterlimit="10"/>
<path d="M98.8623 159.417V158.104" stroke="#263238" stroke-width="0.377455" stroke-miterlimit="10"/>
<path d="M102.924 157.529V159.19" stroke="#263238" stroke-width="0.377455" stroke-miterlimit="10"/>
<path d="M110.077 157.703V158.847" stroke="#263238" stroke-width="0.377455" stroke-miterlimit="10"/>
<path d="M121.921 161.856V160.825" stroke="#263238" stroke-width="0.377455" stroke-miterlimit="10"/>
<path d="M92.6875 162.138V160.708" stroke="#263238" stroke-width="0.377455" stroke-miterlimit="10"/>
<path d="M93.6611 159.738V161.169" stroke="#263238" stroke-width="0.377455" stroke-miterlimit="10"/>
<path d="M120.777 159.852V161.225" stroke="#263238" stroke-width="0.377455" stroke-miterlimit="10"/>
<path d="M119.291 159.852V161.169" stroke="#263238" stroke-width="0.377455" stroke-miterlimit="10"/>
<path d="M115.629 159.794V161.451" stroke="#263238" stroke-width="0.377455" stroke-miterlimit="10"/>
<path d="M96.0059 159.964V160.707" stroke="#263238" stroke-width="0.377455" stroke-miterlimit="10"/>
<path d="M96.579 161.682V160.368" stroke="#263238" stroke-width="0.377455" stroke-miterlimit="10"/>
<path d="M100.641 159.794V161.451" stroke="#263238" stroke-width="0.377455" stroke-miterlimit="10"/>
<path d="M107.789 159.964V161.111" stroke="#263238" stroke-width="0.377455" stroke-miterlimit="10"/>
<path d="M121.159 164.116V163.086" stroke="#263238" stroke-width="0.377455" stroke-miterlimit="10"/>
<path d="M91.9287 164.403V162.973" stroke="#263238" stroke-width="0.377455" stroke-miterlimit="10"/>
<path d="M92.8984 161.999V163.43" stroke="#263238" stroke-width="0.377455" stroke-miterlimit="10"/>
<path d="M120.016 162.116V163.486" stroke="#263238" stroke-width="0.377455" stroke-miterlimit="10"/>
<path d="M118.527 162.116V163.43" stroke="#263238" stroke-width="0.377455" stroke-miterlimit="10"/>
<path d="M114.867 162.06V163.717" stroke="#263238" stroke-width="0.377455" stroke-miterlimit="10"/>
<path d="M95.2461 162.229V162.973" stroke="#263238" stroke-width="0.377455" stroke-miterlimit="10"/>
<path d="M95.8164 163.946V162.629" stroke="#263238" stroke-width="0.377455" stroke-miterlimit="10"/>
<path d="M99.8779 162.06V163.717" stroke="#263238" stroke-width="0.377455" stroke-miterlimit="10"/>
<path d="M107.031 162.229V163.373" stroke="#263238" stroke-width="0.377455" stroke-miterlimit="10"/>
<path d="M121.008 166.381V165.351" stroke="#263238" stroke-width="0.377455" stroke-miterlimit="10"/>
<path d="M91.7744 166.668V165.237" stroke="#263238" stroke-width="0.377455" stroke-miterlimit="10"/>
<path d="M92.7478 164.264V165.694" stroke="#263238" stroke-width="0.377455" stroke-miterlimit="10"/>
<path d="M119.864 164.377V165.751" stroke="#263238" stroke-width="0.377455" stroke-miterlimit="10"/>
<path d="M118.377 164.377V165.694" stroke="#263238" stroke-width="0.377455" stroke-miterlimit="10"/>
<path d="M114.716 164.32V165.981" stroke="#263238" stroke-width="0.377455" stroke-miterlimit="10"/>
<path d="M95.0918 164.494V165.238" stroke="#263238" stroke-width="0.377455" stroke-miterlimit="10"/>
<path d="M95.666 166.208V164.895" stroke="#263238" stroke-width="0.377455" stroke-miterlimit="10"/>
<path d="M99.7266 164.32V165.981" stroke="#263238" stroke-width="0.377455" stroke-miterlimit="10"/>
<path d="M106.876 164.494V165.638" stroke="#263238" stroke-width="0.377455" stroke-miterlimit="10"/>
<path d="M121.083 168.646V167.615" stroke="#263238" stroke-width="0.377455" stroke-miterlimit="10"/>
<path d="M121.982 166.427H90.457V168.729H121.982V166.427Z" fill="white" stroke="#263238" stroke-width="0.377455" stroke-miterlimit="10"/>
<path d="M91.8533 168.929V167.498" stroke="#263238" stroke-width="0.377455" stroke-miterlimit="10"/>
<path d="M92.8232 166.528V167.959" stroke="#263238" stroke-width="0.377455" stroke-miterlimit="10"/>
<path d="M119.94 166.642V168.015" stroke="#263238" stroke-width="0.377455" stroke-miterlimit="10"/>
<path d="M118.452 166.642V167.959" stroke="#263238" stroke-width="0.377455" stroke-miterlimit="10"/>
<path d="M114.791 166.585V168.242" stroke="#263238" stroke-width="0.377455" stroke-miterlimit="10"/>
<path d="M95.7412 168.472V167.154" stroke="#263238" stroke-width="0.377455" stroke-miterlimit="10"/>
<path d="M99.8027 166.585V168.242" stroke="#263238" stroke-width="0.377455" stroke-miterlimit="10"/>
<path d="M106.955 166.755V167.902" stroke="#263238" stroke-width="0.377455" stroke-miterlimit="10"/>
<path d="M120.627 170.906V169.876" stroke="#263238" stroke-width="0.377455" stroke-miterlimit="10"/>
<path d="M91.3965 171.193V169.763" stroke="#263238" stroke-width="0.377455" stroke-miterlimit="10"/>
<path d="M92.3662 168.789V170.22" stroke="#263238" stroke-width="0.377455" stroke-miterlimit="10"/>
<path d="M119.483 168.906V170.276" stroke="#263238" stroke-width="0.377455" stroke-miterlimit="10"/>
<path d="M117.996 168.906V170.22" stroke="#263238" stroke-width="0.377455" stroke-miterlimit="10"/>
<path d="M114.335 168.85V170.507" stroke="#263238" stroke-width="0.377455" stroke-miterlimit="10"/>
<path d="M94.7139 169.02V169.763" stroke="#263238" stroke-width="0.377455" stroke-miterlimit="10"/>
<path d="M95.2852 170.737V169.42" stroke="#263238" stroke-width="0.377455" stroke-miterlimit="10"/>
<path d="M99.3457 168.85V170.507" stroke="#263238" stroke-width="0.377455" stroke-miterlimit="10"/>
<path d="M106.499 169.02V170.163" stroke="#263238" stroke-width="0.377455" stroke-miterlimit="10"/>
<path d="M120.702 173.171V172.141" stroke="#263238" stroke-width="0.377455" stroke-miterlimit="10"/>
<path d="M121.6 170.952H90.0753V173.255H121.6V170.952Z" fill="white" stroke="#263238" stroke-width="0.377455" stroke-miterlimit="10"/>
<path d="M91.4727 173.459V172.028" stroke="#263238" stroke-width="0.377455" stroke-miterlimit="10"/>
<path d="M119.559 171.167V172.541" stroke="#263238" stroke-width="0.377455" stroke-miterlimit="10"/>
<path d="M118.071 171.167V172.484" stroke="#263238" stroke-width="0.377455" stroke-miterlimit="10"/>
<path d="M114.41 171.11V172.771" stroke="#263238" stroke-width="0.377455" stroke-miterlimit="10"/>
<path d="M94.7898 171.284V172.028" stroke="#263238" stroke-width="0.377455" stroke-miterlimit="10"/>
<path d="M95.3594 172.998V171.685" stroke="#263238" stroke-width="0.377455" stroke-miterlimit="10"/>
<path d="M99.4219 171.11V172.771" stroke="#263238" stroke-width="0.377455" stroke-miterlimit="10"/>
<path d="M106.574 171.284V172.428" stroke="#263238" stroke-width="0.377455" stroke-miterlimit="10"/>
<path d="M121.008 175.432V174.405" stroke="#263238" stroke-width="0.377455" stroke-miterlimit="10"/>
<path d="M91.7744 175.72V174.289" stroke="#263238" stroke-width="0.377455" stroke-miterlimit="10"/>
<path d="M92.7478 173.318V174.749" stroke="#263238" stroke-width="0.377455" stroke-miterlimit="10"/>
<path d="M119.864 173.432V174.806" stroke="#263238" stroke-width="0.377455" stroke-miterlimit="10"/>
<path d="M118.377 173.432V174.749" stroke="#263238" stroke-width="0.377455" stroke-miterlimit="10"/>
<path d="M114.716 173.376V175.033" stroke="#263238" stroke-width="0.377455" stroke-miterlimit="10"/>
<path d="M95.0918 173.545V174.289" stroke="#263238" stroke-width="0.377455" stroke-miterlimit="10"/>
<path d="M95.665 175.263V173.945" stroke="#263238" stroke-width="0.377455" stroke-miterlimit="10"/>
<path d="M99.7266 173.376V175.033" stroke="#263238" stroke-width="0.377455" stroke-miterlimit="10"/>
<path d="M106.876 173.545V174.689" stroke="#263238" stroke-width="0.377455" stroke-miterlimit="10"/>
<path d="M121.084 177.697V176.667" stroke="#263238" stroke-width="0.377455" stroke-miterlimit="10"/>
<path d="M121.982 175.478H90.457V177.78H121.982V175.478Z" fill="white" stroke="#263238" stroke-width="0.377455" stroke-miterlimit="10"/>
<path d="M91.8533 177.984V176.554" stroke="#263238" stroke-width="0.377455" stroke-miterlimit="10"/>
<path d="M92.8234 175.58V177.01" stroke="#263238" stroke-width="0.377455" stroke-miterlimit="10"/>
<path d="M119.939 175.696V177.066" stroke="#263238" stroke-width="0.377455" stroke-miterlimit="10"/>
<path d="M118.453 175.696V177.01" stroke="#263238" stroke-width="0.377455" stroke-miterlimit="10"/>
<path d="M114.791 175.64V177.297" stroke="#263238" stroke-width="0.377455" stroke-miterlimit="10"/>
<path d="M95.7411 177.528V176.21" stroke="#263238" stroke-width="0.377455" stroke-miterlimit="10"/>
<path d="M99.8027 175.64V177.297" stroke="#263238" stroke-width="0.377455" stroke-miterlimit="10"/>
<path d="M106.955 175.81V176.953" stroke="#263238" stroke-width="0.377455" stroke-miterlimit="10"/>
<path d="M121.921 179.962V178.932" stroke="#263238" stroke-width="0.377455" stroke-miterlimit="10"/>
<path d="M92.6875 180.249V178.818" stroke="#263238" stroke-width="0.377455" stroke-miterlimit="10"/>
<path d="M93.6611 177.845V179.275" stroke="#263238" stroke-width="0.377455" stroke-miterlimit="10"/>
<path d="M120.777 177.958V179.332" stroke="#263238" stroke-width="0.377455" stroke-miterlimit="10"/>
<path d="M119.291 177.958V179.275" stroke="#263238" stroke-width="0.377455" stroke-miterlimit="10"/>
<path d="M115.629 177.901V179.562" stroke="#263238" stroke-width="0.377455" stroke-miterlimit="10"/>
<path d="M96.0059 178.075V178.819" stroke="#263238" stroke-width="0.377455" stroke-miterlimit="10"/>
<path d="M96.579 179.788V178.475" stroke="#263238" stroke-width="0.377455" stroke-miterlimit="10"/>
<path d="M100.641 177.901V179.562" stroke="#263238" stroke-width="0.377455" stroke-miterlimit="10"/>
<path d="M107.789 178.075V179.219" stroke="#263238" stroke-width="0.377455" stroke-miterlimit="10"/>
<path d="M121.921 182.223V181.196" stroke="#263238" stroke-width="0.377455" stroke-miterlimit="10"/>
<path d="M92.6875 182.51V181.079" stroke="#263238" stroke-width="0.377455" stroke-miterlimit="10"/>
<path d="M93.6611 180.109V181.54" stroke="#263238" stroke-width="0.377455" stroke-miterlimit="10"/>
<path d="M120.777 180.223V181.597" stroke="#263238" stroke-width="0.377455" stroke-miterlimit="10"/>
<path d="M119.291 180.223V181.54" stroke="#263238" stroke-width="0.377455" stroke-miterlimit="10"/>
<path d="M115.629 180.166V181.823" stroke="#263238" stroke-width="0.377455" stroke-miterlimit="10"/>
<path d="M96.0059 180.335V181.079" stroke="#263238" stroke-width="0.377455" stroke-miterlimit="10"/>
<path d="M96.5791 182.054V180.736" stroke="#263238" stroke-width="0.377455" stroke-miterlimit="10"/>
<path d="M100.641 180.166V181.823" stroke="#263238" stroke-width="0.377455" stroke-miterlimit="10"/>
<path d="M107.789 180.335V181.479" stroke="#263238" stroke-width="0.377455" stroke-miterlimit="10"/>
<path d="M121.922 184.487V183.457" stroke="#263238" stroke-width="0.377455" stroke-miterlimit="10"/>
<path d="M122.819 137H91.2939V139.302H122.819V137Z" fill="white" stroke="#263238" stroke-width="0.377455" stroke-miterlimit="10"/>
<path d="M124.299 141.526H92.7743V143.828H124.299V141.526Z" fill="white" stroke="#263238" stroke-width="0.377455" stroke-miterlimit="10"/>
<path d="M125.103 143.79H93.5781V146.093H125.103V143.79Z" fill="white" stroke="#263238" stroke-width="0.377455" stroke-miterlimit="10"/>
<path d="M122.819 146.055H91.2939V148.357H122.819V146.055Z" fill="white" stroke="#263238" stroke-width="0.377455" stroke-miterlimit="10"/>
<path d="M96.5781 150.365V149.048" stroke="#263238" stroke-width="0.377455" stroke-miterlimit="10"/>
<path d="M122.82 150.581H91.2949V152.884H122.82V150.581Z" fill="white" stroke="#263238" stroke-width="0.377455" stroke-miterlimit="10"/>
<path d="M125.285 152.846H93.7598V155.148H125.285V152.846Z" fill="white" stroke="#263238" stroke-width="0.377455" stroke-miterlimit="10"/>
<path d="M126.148 155.106H94.623V157.409H126.148V155.106Z" fill="white" stroke="#263238" stroke-width="0.377455" stroke-miterlimit="10"/>
<path d="M95.9443 157.473V158.903" stroke="#263238" stroke-width="0.377455" stroke-miterlimit="10"/>
<path d="M122.819 159.636H91.2939V161.938H122.819V159.636Z" fill="white" stroke="#263238" stroke-width="0.377455" stroke-miterlimit="10"/>
<path d="M122.057 161.896H90.5322V164.199H122.057V161.896Z" fill="white" stroke="#263238" stroke-width="0.377455" stroke-miterlimit="10"/>
<path d="M121.906 164.162H90.3809V166.465H121.906V164.162Z" fill="white" stroke="#263238" stroke-width="0.377455" stroke-miterlimit="10"/>
<path d="M95.171 166.755V167.498" stroke="#263238" stroke-width="0.377455" stroke-miterlimit="10"/>
<path d="M121.525 168.688H90V170.99H121.525V168.688Z" fill="white" stroke="#263238" stroke-width="0.377455" stroke-miterlimit="10"/>
<path d="M92.4424 171.054V172.484" stroke="#263238" stroke-width="0.377455" stroke-miterlimit="10"/>
<path d="M121.906 173.217H90.381V175.519H121.906V173.217Z" fill="white" stroke="#263238" stroke-width="0.377455" stroke-miterlimit="10"/>
<path d="M95.171 175.81V176.553" stroke="#263238" stroke-width="0.377455" stroke-miterlimit="10"/>
<path d="M122.82 177.742H91.2949V180.045H122.82V177.742Z" fill="white" stroke="#263238" stroke-width="0.377455" stroke-miterlimit="10"/>
<path d="M122.819 180.003H91.2939V182.302H122.819V180.003Z" fill="white" stroke="#263238" stroke-width="0.377455" stroke-miterlimit="10"/>
<path d="M122.82 182.268H91.2949V184.566H122.82V182.268Z" fill="white" stroke="#263238" stroke-width="0.377455" stroke-miterlimit="10"/>
<path d="M92.6875 184.775V183.344" stroke="#263238" stroke-width="0.377455" stroke-miterlimit="10"/>
<path d="M93.6611 182.37V183.801" stroke="#263238" stroke-width="0.377455" stroke-miterlimit="10"/>
<path d="M120.777 182.487V183.857" stroke="#263238" stroke-width="0.377455" stroke-miterlimit="10"/>
<path d="M119.291 182.487V183.801" stroke="#263238" stroke-width="0.377455" stroke-miterlimit="10"/>
<path d="M115.629 182.431V184.088" stroke="#263238" stroke-width="0.377455" stroke-miterlimit="10"/>
<path d="M96.0059 182.601V183.344" stroke="#263238" stroke-width="0.377455" stroke-miterlimit="10"/>
<path d="M96.5791 184.317V183" stroke="#263238" stroke-width="0.377455" stroke-miterlimit="10"/>
<path d="M100.641 182.431V184.088" stroke="#263238" stroke-width="0.377455" stroke-miterlimit="10"/>
<path d="M107.789 182.601V183.744" stroke="#263238" stroke-width="0.377455" stroke-miterlimit="10"/>
<defs>
<clipPath id="clip0_135_8353">
<rect width="90.9934" height="37.5681" fill="white" transform="translate(98 28.8115) rotate(-12.5755)"/>
</clipPath>
</defs>
</svg>
