<svg width="335" height="200" viewBox="0 0 335 200" fill="none" xmlns="http://www.w3.org/2000/svg">
<path d="M136.884 156.284H297.807C300.405 156.284 302.511 158.391 302.511 160.989V175.115C302.511 177.714 300.405 179.82 297.807 179.82H136.884C134.286 179.82 132.18 177.714 132.18 175.115V160.989C132.18 158.391 134.286 156.284 136.884 156.284Z" fill="#F9B974" stroke="#040926" stroke-width="0.35989"/>
<path d="M301.66 146.932C302.038 147.987 301.256 149.098 300.136 149.098H134.556C133.435 149.098 132.653 147.987 133.031 146.932L144.879 113.835C145.11 113.191 145.72 112.761 146.404 112.761H288.287C288.971 112.761 289.581 113.191 289.812 113.835L301.66 146.932Z" fill="#D1D2D4" stroke="#040926" stroke-width="0.35989"/>
<path d="M149.695 87.6263L149.696 87.6263L152.299 73.3288C152.551 71.9479 153.754 70.9444 155.157 70.9444H279.52C280.923 70.9444 282.125 71.9471 282.378 73.3271L289.047 109.828C289.373 111.611 288.003 113.255 286.189 113.255H148.501C146.687 113.255 145.317 111.612 145.643 109.828L149.695 87.6263Z" fill="#F9B974" stroke="#040926" stroke-width="0.35989"/>
<path d="M301.148 156.779H133.542C132.79 156.779 132.18 156.169 132.18 155.416V149.456C132.18 149.359 132.197 149.262 132.229 149.171C132.35 148.831 132.671 148.605 133.031 148.605H301.66C302.02 148.605 302.341 148.831 302.462 149.171L302.631 149.111L302.462 149.171C302.494 149.262 302.511 149.359 302.511 149.456V155.416C302.511 156.169 301.901 156.779 301.148 156.779Z" fill="#808181" stroke="#040926" stroke-width="0.35989"/>
<path opacity="0.3" d="M236.219 163.334C236.219 164.51 235.263 165.466 234.089 165.466H200.602C199.428 165.466 198.472 164.51 198.472 163.334C198.472 162.159 199.428 161.202 200.602 161.202H234.089C235.263 161.202 236.219 162.159 236.219 163.334Z" fill="#040926" stroke="#040926" stroke-width="0.35989"/>
<path d="M186.995 87.2509L191.012 126.327H148.801L158.174 87.9284L160.326 84.6126H184.63L186.995 87.2509Z" fill="#C47A2D" stroke="#040926" stroke-width="0.35989"/>
<path d="M184.543 84.6126L186.976 117.806H152.827L160.373 84.6126H184.543Z" fill="white" stroke="#040926" stroke-width="0.35989"/>
<path opacity="0.1" d="M180.249 89.2366L182 113.182H158.633L164.061 89.2366H180.249Z" fill="#040926" stroke="#040926" stroke-width="0.35989"/>
<path opacity="0.1" d="M162.94 104.007L158.905 111.979L163.625 91.1605L162.94 104.007Z" fill="#040926" stroke="#040926" stroke-width="0.35989"/>
<path opacity="0.1" d="M179.295 104.033L180.4 91.3129L181.907 111.927L179.295 104.033Z" fill="#040926" stroke="#040926" stroke-width="0.35989"/>
<path d="M179.645 105.032H162.524L163.072 103.18H179.097L179.645 105.032Z" fill="#040926"/>
<path d="M209.579 119.72H216.541L216.663 123.643L209.579 123.629V119.72Z" fill="#D1D2D4" stroke="#808181" stroke-width="0.35989"/>
<path d="M218.68 123.643L218.518 119.72H225.493L225.765 123.643H218.68Z" fill="#D1D2D4" stroke="#808181" stroke-width="0.35989"/>
<path d="M227.783 123.643L227.484 119.72H234.474L234.895 123.643H227.783Z" fill="#D1D2D4" stroke="#808181" stroke-width="0.35989"/>
<path d="M216.705 125.263L216.841 129.379H209.579V125.249L216.705 125.263Z" fill="#D1D2D4" stroke="#808181" stroke-width="0.35989"/>
<path d="M218.902 129.393L218.739 125.262H225.879L226.178 129.393H218.902Z" fill="#D1D2D4" stroke="#808181" stroke-width="0.35989"/>
<path d="M228.228 129.393L227.915 125.262L235.068 125.276L235.518 129.407L228.228 129.393Z" fill="#D1D2D4" stroke="#808181" stroke-width="0.35989"/>
<path d="M209.579 135.411V131.058L216.897 131.072L217.034 135.425L209.579 135.411Z" fill="#D1D2D4" stroke="#808181" stroke-width="0.35989"/>
<path d="M219.125 135.427L218.961 131.074L226.293 131.088L226.594 135.441L219.125 135.427Z" fill="#D1D2D4" stroke="#808181" stroke-width="0.35989"/>
<path d="M228.701 135.44L228.359 131.088L235.704 131.102L236.183 135.455L228.701 135.44Z" fill="#D1D2D4" stroke="#808181" stroke-width="0.35989"/>
<path d="M209.579 141.753V137.163L217.089 137.177L217.226 141.767L209.579 141.753Z" fill="#D1D2D4" stroke="#808181" stroke-width="0.35989"/>
<path d="M219.377 141.769L219.199 137.178L226.723 137.193L227.039 141.797L219.377 141.769Z" fill="#D1D2D4" stroke="#808181" stroke-width="0.35989"/>
<path d="M229.19 141.798L228.832 137.193L236.371 137.207L236.879 141.826L229.19 141.798Z" fill="#D1D2D4" stroke="#808181" stroke-width="0.35989"/>
<path d="M242.923 123.643L242.367 119.72H249.206L249.884 123.658L242.923 123.643Z" fill="#D1D2D4" stroke="#808181" stroke-width="0.35989"/>
<path d="M252.1 123.658L251.381 119.72H258.232L259.059 123.658H252.1Z" fill="#D1D2D4" stroke="#808181" stroke-width="0.35989"/>
<path d="M261.277 123.658L260.409 119.72H267.271L268.248 123.658H261.277Z" fill="#D1D2D4" stroke="#808181" stroke-width="0.35989"/>
<path d="M270.484 123.658L269.466 119.72H276.326L277.466 123.672L270.484 123.658Z" fill="#D1D2D4" stroke="#808181" stroke-width="0.35989"/>
<path d="M279.706 123.673L278.525 119.72H285.41L286.699 123.673H279.706Z" fill="#D1D2D4" stroke="#808181" stroke-width="0.35989"/>
<path d="M243.753 129.423L243.167 125.278H250.169L250.878 129.423H243.753Z" fill="#D1D2D4" stroke="#808181" stroke-width="0.35989"/>
<path d="M253.136 129.423L252.386 125.278L259.401 125.292L260.287 129.437L253.136 129.423Z" fill="#D1D2D4" stroke="#808181" stroke-width="0.35989"/>
<path d="M262.551 129.438L261.638 125.292H268.664L269.7 129.452L262.551 129.438Z" fill="#D1D2D4" stroke="#808181" stroke-width="0.35989"/>
<path d="M271.979 129.453L270.903 125.292H277.94L279.154 129.453H271.979Z" fill="#D1D2D4" stroke="#808181" stroke-width="0.35989"/>
<path d="M281.423 129.467L280.183 125.307H287.246L288.609 129.467H281.423Z" fill="#D1D2D4" stroke="#808181" stroke-width="0.35989"/>
<path d="M244.597 135.47L243.982 131.102L251.176 131.116L251.929 135.484L244.597 135.47Z" fill="#D1D2D4" stroke="#808181" stroke-width="0.35989"/>
<path d="M254.233 135.485L253.439 131.117L260.646 131.131L261.562 135.499L254.233 135.485Z" fill="#D1D2D4" stroke="#808181" stroke-width="0.35989"/>
<path d="M263.884 135.514L262.912 131.132L270.13 131.146L271.225 135.528L263.884 135.514Z" fill="#D1D2D4" stroke="#808181" stroke-width="0.35989"/>
<path d="M273.549 135.529L272.414 131.146L279.643 131.16L280.916 135.543L273.549 135.529Z" fill="#D1D2D4" stroke="#808181" stroke-width="0.35989"/>
<path d="M245.501 141.843L244.855 137.238L252.228 137.252L253.025 141.857L245.501 141.843Z" fill="#D1D2D4" stroke="#808181" stroke-width="0.35989"/>
<path d="M255.388 141.872L254.55 137.253L261.934 137.267L262.909 141.886L255.388 141.872Z" fill="#D1D2D4" stroke="#808181" stroke-width="0.35989"/>
<path d="M265.276 141.888L264.259 137.268L271.67 137.283L272.824 141.916L265.276 141.888Z" fill="#D1D2D4" stroke="#808181" stroke-width="0.35989"/>
<path d="M275.194 141.917L273.998 137.298L281.421 137.312L282.767 141.946L275.194 141.917Z" fill="#D1D2D4" stroke="#808181" stroke-width="0.35989"/>
<path d="M290.686 135.78L290.699 135.821L290.73 135.851C290.744 135.865 290.759 135.877 290.774 135.885L292.728 141.946H285.141L283.269 135.673L283.269 135.672L281.93 131.161H289.171L290.686 135.78Z" fill="#D1D2D4" stroke="#808181" stroke-width="0.35989"/>
<path d="M210.35 119.011H217.297L217.419 122.934H210.35V119.011Z" fill="white" stroke="#040926" stroke-width="0.35989"/>
<path d="M219.437 122.934L219.288 119.011H226.264L226.535 122.934H219.437Z" fill="white" stroke="#040926" stroke-width="0.35989"/>
<path d="M228.554 122.934L228.256 119.011H235.232L235.666 122.949L228.554 122.934Z" fill="white" stroke="#040926" stroke-width="0.35989"/>
<path d="M210.35 124.553H217.475L217.611 128.683L210.35 128.669V124.553Z" fill="white" stroke="#040926" stroke-width="0.35989"/>
<path d="M219.659 128.684L219.496 124.553L226.65 124.567L226.936 128.698L219.659 128.684Z" fill="white" stroke="#040926" stroke-width="0.35989"/>
<path d="M228.998 128.699L228.684 124.569H235.838L236.287 128.699H228.998Z" fill="white" stroke="#040926" stroke-width="0.35989"/>
<path d="M210.35 130.364H217.653L217.789 134.717L210.35 134.703V130.364Z" fill="white" stroke="#040926" stroke-width="0.35989"/>
<path d="M219.896 134.731L219.732 130.378H227.049L227.364 134.746L219.896 134.731Z" fill="white" stroke="#040926" stroke-width="0.35989"/>
<path d="M229.471 134.746L229.129 130.379L236.475 130.393L236.954 134.76L229.471 134.746Z" fill="#C47A2D" stroke="#040926" stroke-width="0.35989"/>
<path d="M210.35 141.044V136.454L217.845 136.468L217.996 141.073L210.35 141.044Z" fill="white" stroke="#040926" stroke-width="0.35989"/>
<path d="M220.133 141.074L219.968 136.484L227.478 136.498L227.808 141.088L220.133 141.074Z" fill="white" stroke="#040926" stroke-width="0.35989"/>
<path d="M229.96 141.104L229.603 136.499L237.141 136.514L237.649 141.118L229.96 141.104Z" fill="#808181" stroke="#040926" stroke-width="0.35989"/>
<path d="M243.694 122.949L243.138 119.011H249.962L250.64 122.949H243.694Z" fill="#808181" stroke="#040926" stroke-width="0.35989"/>
<path d="M252.856 122.949L252.151 119.011H258.988L259.829 122.949H252.856Z" fill="#808181" stroke="#040926" stroke-width="0.35989"/>
<path d="M262.048 122.964L261.179 119.011H268.027L269.018 122.964H262.048Z" fill="#808181" stroke="#040926" stroke-width="0.35989"/>
<path d="M271.24 122.964L270.222 119.011H277.096L278.237 122.964H271.24Z" fill="white" stroke="#040926" stroke-width="0.35989"/>
<path d="M280.462 122.964L279.294 119.011H286.166L287.469 122.964H280.462Z" fill="white" stroke="#040926" stroke-width="0.35989"/>
<path d="M244.509 128.714L243.923 124.569L250.925 124.583L251.648 128.728L244.509 128.714Z" fill="white" stroke="#040926" stroke-width="0.35989"/>
<path d="M253.907 128.729L253.158 124.583H260.172L261.044 128.729H253.907Z" fill="white" stroke="#040926" stroke-width="0.35989"/>
<path d="M263.307 128.744L262.394 124.584L269.435 124.598L270.47 128.744H263.307Z" fill="white" stroke="#040926" stroke-width="0.35989"/>
<path d="M272.736 128.744L271.673 124.598H278.711L279.91 128.758L272.736 128.744Z" fill="white" stroke="#040926" stroke-width="0.35989"/>
<path d="M282.194 128.758L280.953 124.598H288.002L289.379 128.772L282.194 128.758Z" fill="#F9B974" stroke="#040926" stroke-width="0.35989"/>
<path d="M245.368 134.776L244.752 130.407H251.932L252.684 134.79L245.368 134.776Z" fill="white" stroke="#040926" stroke-width="0.35989"/>
<path d="M254.989 134.79L254.209 130.422H261.401L262.332 134.804L254.989 134.79Z" fill="white" stroke="#040926" stroke-width="0.35989"/>
<path d="M264.64 134.805L263.682 130.423L270.9 130.437L271.995 134.819L264.64 134.805Z" fill="white" stroke="#040926" stroke-width="0.35989"/>
<path d="M274.306 134.82L273.183 130.437L280.399 130.451L281.672 134.834L274.306 134.82Z" fill="white" stroke="#040926" stroke-width="0.35989"/>
<path d="M246.27 141.134L245.611 136.529L252.998 136.543L253.794 141.162L246.27 141.134Z" fill="white" stroke="#040926" stroke-width="0.35989"/>
<path d="M256.145 141.163L255.32 136.544L262.705 136.558L263.681 141.192L256.145 141.163Z" fill="white" stroke="#040926" stroke-width="0.35989"/>
<path d="M266.046 141.193L265.03 136.574L272.441 136.588L273.595 141.208L266.046 141.193Z" fill="white" stroke="#040926" stroke-width="0.35989"/>
<path d="M275.963 141.223L274.768 136.589L282.19 136.603L283.523 141.237L275.963 141.223Z" fill="white" stroke="#040926" stroke-width="0.35989"/>
<path d="M284.039 134.978L282.701 130.453L289.927 130.467L291.456 135.101L291.457 135.101L293.482 141.266L285.911 141.238L284.039 134.979L284.039 134.978Z" fill="#F9B974" stroke="#040926" stroke-width="0.35989"/>
<path opacity="0.2" d="M175.706 104.113H163.132C163.132 92.02 155.697 91.5902 149.847 87.6925L152.912 71.168H155.193C156.452 72.2202 157.859 73.1539 159.429 74.2061C166.686 79.0375 175.721 83.3353 175.721 104.113H175.706Z" fill="#040926"/>
<path d="M274.092 75.9855L280.493 108.245H210.794V75.9855H274.092Z" fill="#D1D2D4" stroke="#040926" stroke-width="0.35989"/>
<path d="M264.952 84.6126L266.662 93.7524H217.34V84.6126H264.952Z" fill="white" stroke="#040926" stroke-width="0.35989"/>
<path d="M216.139 17.1799H268.198C271.428 17.1799 274.046 19.7998 274.046 23.0318V41.7349C274.046 44.9669 271.428 47.5868 268.198 47.5868H216.139C212.91 47.5868 210.291 44.9669 210.291 41.7349V23.0318C210.291 19.7998 212.91 17.1799 216.139 17.1799Z" fill="#F9B974" stroke="#040926" stroke-width="0.35989"/>
<path d="M216.138 19.4924H268.197C270.151 19.4924 271.735 21.0772 271.735 23.0324V41.7354C271.735 43.6906 270.151 45.2754 268.197 45.2754H216.138C214.185 45.2754 212.601 43.6906 212.601 41.7354V23.0324C212.601 21.0772 214.185 19.4924 216.138 19.4924Z" fill="white" stroke="#040926" stroke-width="0.35989"/>
<path d="M235.448 71.438V47.9026H248.743V71.438H235.448Z" fill="#F9B974" stroke="#040926" stroke-width="0.35989"/>
<path opacity="0.2" d="M248.923 46.8691H235.268V53.6964H248.923V46.8691Z" fill="#040926"/>
<path d="M138.272 67.0698L153.217 61.8821C154.231 64.7402 155.521 66.7036 157.096 68.3095C158.685 69.9295 160.562 71.1813 162.714 72.6169L162.765 72.6514L162.766 72.6515C166.395 75.068 170.44 77.7629 173.583 82.4353C176.705 87.0753 178.949 93.6826 178.977 103.933H163.164C163.148 97.9758 162.34 94.4178 160.792 91.8654C159.231 89.2924 156.929 87.7644 154.016 85.8308L154.005 85.8236L154.005 85.8233L153.96 85.7934C148.916 82.424 142.074 77.853 138.272 67.0698Z" fill="white" stroke="#040926" stroke-width="0.35989"/>
<path d="M60.2343 107.786C60.2343 107.786 76.6693 117.693 77.3179 118.193C77.9665 118.694 85.0821 132.416 85.0821 132.416C85.0821 132.416 94.7432 143.415 97.8739 147.091C101.005 150.764 107.079 162.435 107.553 164.006C108.026 165.576 107.167 166.654 103.81 168.834C100.453 171.014 82.4121 178.278 75.4725 178.99C68.5329 179.702 67.8203 179.101 65.1411 176.736C62.4618 174.371 49.308 160.124 43.2116 151.016C37.1186 141.91 30.6663 133.917 27.7811 130.99C24.8958 128.062 22.8063 123.272 22.3862 120.77C21.9661 118.269 22.9002 116.185 23.5045 115.473C24.1088 114.762 25.7242 112.331 27.538 111.571C29.3519 110.81 57.1651 107.039 58.0511 106.912C58.9371 106.785 60.2378 107.787 60.2378 107.787L60.2343 107.786Z" fill="#F9B974" stroke="#124052" stroke-width="0.196966" stroke-miterlimit="10"/>
<path d="M59.9978 113.121L35.5972 117.695C35.5972 117.695 30.4469 114.792 24.758 113.892C25.5148 112.992 26.4924 112.003 27.5345 111.567C29.0729 110.924 49.3801 108.103 55.9961 107.191L59.9952 113.116L59.9978 113.121Z" fill="#124052" stroke="#124052" stroke-width="0.196966" stroke-miterlimit="10"/>
<path d="M38.3926 120.206L36.7375 118.267L61.0641 113.117L63.4881 114.971L38.3926 120.206Z" fill="#124052" stroke="#124052" stroke-width="0.196966" stroke-miterlimit="10"/>
<path d="M76.5312 118.258L40.168 126.893L45.9861 142.784L84.3962 132.763L76.5312 118.258Z" stroke="#124052" stroke-width="0.196966" stroke-miterlimit="10"/>
<path d="M71.3924 172.514C71.3924 172.514 71.8319 174.935 70.6737 176.879C69.5154 178.824 68.5035 178.408 68.5035 178.408" stroke="#124052" stroke-width="0.196966" stroke-miterlimit="10"/>
<path d="M69.6533 118.459L40.6859 125.476C40.6859 125.476 29.218 115.922 28.3077 115.785C27.3974 115.648 26.0304 116.344 25.2064 116.914C24.3823 117.484 23.9314 116.519 24.2266 115.305" stroke="#124052" stroke-width="0.196966" stroke-miterlimit="10"/>
<path d="M73.7627 117.461L71.2599 118.069" stroke="#124052" stroke-width="0.196966" stroke-miterlimit="10"/>
<path d="M50.4005 149.578C54.4326 154.428 59.7846 160.716 62.8982 163.766C68.3632 169.119 70.0486 170.645 71.7878 171.238C73.527 171.83 86.3699 169.045 93.5986 166.431C100.83 163.822 104.493 162.14 105.053 161.248" stroke="#124052" stroke-width="0.196966" stroke-miterlimit="10"/>
<path d="M26.9937 112.382C26.9937 112.382 26.198 114.245 27.6226 116.132C29.0471 118.019 38.9137 126.414 38.9137 126.414L45.0582 143.07C45.0582 143.07 46.6955 145.097 49.0382 147.936" stroke="#124052" stroke-width="0.196966" stroke-miterlimit="10"/>
<path d="M98.5214 170.547C101.475 169.238 104.138 167.851 106.098 166.474" stroke="#124052" stroke-width="0.196966" stroke-miterlimit="10"/>
<path d="M66.1736 175.216C67.7495 176.602 68.9953 177.45 69.8111 177.611C71.6922 177.984 79.8609 177.143 86.731 174.959C90.0586 173.899 93.6635 172.609 97.001 171.205" stroke="#124052" stroke-width="0.196966" stroke-miterlimit="10"/>
<path d="M54.2763 162.124C55.9011 164.218 57.3624 166.029 58.52 167.331C60.9567 170.072 63.1606 172.406 65.0125 174.158" stroke="#124052" stroke-width="0.196966" stroke-miterlimit="10"/>
<path d="M29.5288 130.622C32.0015 133.549 34.8207 136.884 36.9615 139.387C40.4177 143.438 47.3584 153.09 52.9323 160.375" stroke="#124052" stroke-width="0.196966" stroke-miterlimit="10"/>
<path d="M23.9197 123.969C23.9197 123.969 25.7815 126.18 28.2472 129.105" stroke="#124052" stroke-width="0.196966" stroke-miterlimit="10"/>
<path d="M40.4553 138.552C35.0229 132.595 25.0632 121.642 24.1773 120.435C22.954 118.767 22.8907 117.981 22.8907 117.981" stroke="#124052" stroke-width="0.196966" stroke-miterlimit="10"/>
<path d="M43.9441 142.374C43.9441 142.374 42.89 141.222 41.2664 139.441" stroke="#124052" stroke-width="0.196966" stroke-miterlimit="10"/>
<path d="M44.6743 128.323L49.0851 139.877L80.1947 131.567L75.3253 121.081L44.6743 128.323Z" fill="#949494" stroke="#124052" stroke-width="0.196966" stroke-miterlimit="10"/>
<path d="M47.2704 129.047L50.5365 137.805L77.563 130.585L73.8974 122.758L47.2704 129.047Z" fill="white"/>
<path d="M78.2008 139.086L74.0182 140.236C73.9315 140.259 73.8419 140.233 73.7798 140.17L72.8475 139.185C72.7242 139.055 72.7845 138.838 72.9579 138.791L77.1404 137.641C77.2271 137.618 77.3168 137.643 77.3788 137.706L78.3111 138.692C78.4344 138.822 78.3742 139.039 78.2008 139.086Z" stroke="#808181" stroke-width="0.196966" stroke-miterlimit="10"/>
<path d="M80.3511 141.918L76.1686 143.068C76.0819 143.091 75.9923 143.065 75.9302 143.002L74.9979 142.017C74.8746 141.887 74.9349 141.67 75.1083 141.623L79.2908 140.473C79.3775 140.45 79.4672 140.475 79.5292 140.538L80.4615 141.524C80.5848 141.654 80.5246 141.871 80.3511 141.918Z" stroke="#808181" stroke-width="0.196966" stroke-miterlimit="10"/>
<path d="M82.6138 144.462L78.4313 145.612C78.3446 145.635 78.255 145.609 78.1929 145.546L77.2606 144.561C77.1373 144.431 77.1976 144.213 77.371 144.167L81.5535 143.017C81.6402 142.994 81.7298 143.019 81.7919 143.082L82.7242 144.068C82.8475 144.198 82.7873 144.415 82.6138 144.462Z" stroke="#808181" stroke-width="0.196966" stroke-miterlimit="10"/>
<path d="M71.2115 140.849L67.029 141.999C66.9423 142.023 66.8526 141.997 66.7906 141.934L65.8583 140.948C65.735 140.819 65.7952 140.601 65.9686 140.555L70.1512 139.405C70.2379 139.382 70.3275 139.407 70.3896 139.47L71.3219 140.456C71.4452 140.585 71.3849 140.803 71.2115 140.849Z" stroke="#808181" stroke-width="0.196966" stroke-miterlimit="10"/>
<path d="M73.3619 143.675L69.1794 144.826C69.0927 144.849 69.003 144.823 68.9409 144.76L68.0087 143.774C67.8853 143.645 67.9456 143.427 68.119 143.381L72.3016 142.231C72.3883 142.208 72.4779 142.233 72.54 142.296L73.4723 143.282C73.5956 143.412 73.5353 143.629 73.3619 143.675Z" stroke="#808181" stroke-width="0.196966" stroke-miterlimit="10"/>
<path d="M75.6268 146.218L71.4442 147.368C71.3575 147.392 71.2679 147.366 71.2058 147.303L70.2736 146.317C70.1502 146.188 70.2105 145.97 70.3839 145.924L74.5665 144.774C74.6532 144.751 74.7428 144.776 74.8049 144.839L75.7371 145.825C75.8604 145.955 75.8002 146.172 75.6268 146.218Z" stroke="#808181" stroke-width="0.196966" stroke-miterlimit="10"/>
<path d="M64.224 142.607L60.0414 143.757C59.9547 143.78 59.8651 143.755 59.803 143.692L58.8707 142.706C58.7474 142.577 58.8077 142.359 58.9811 142.313L63.1636 141.163C63.2503 141.139 63.34 141.165 63.402 141.228L64.3343 142.214C64.4576 142.343 64.3974 142.561 64.224 142.607Z" stroke="#808181" stroke-width="0.196966" stroke-miterlimit="10"/>
<path d="M66.3756 145.434L62.193 146.584C62.1063 146.608 62.0167 146.582 61.9546 146.519L61.0223 145.533C60.899 145.404 60.9593 145.186 61.1327 145.14L65.3152 143.99C65.4019 143.967 65.4916 143.992 65.5536 144.055L66.4859 145.041C66.6092 145.17 66.549 145.388 66.3756 145.434Z" stroke="#808181" stroke-width="0.196966" stroke-miterlimit="10"/>
<path d="M68.6343 147.981L64.4518 149.131C64.3651 149.154 64.2755 149.129 64.2134 149.066L63.2811 148.08C63.1578 147.951 63.2181 147.733 63.3915 147.687L67.574 146.537C67.6607 146.513 67.7504 146.539 67.8124 146.602L68.7447 147.588C68.868 147.717 68.8078 147.935 68.6343 147.981Z" stroke="#808181" stroke-width="0.196966" stroke-miterlimit="10"/>
<path d="M59.0299 147.375L54.8473 148.525C54.7606 148.548 54.671 148.522 54.6089 148.459L53.6766 147.474C53.5533 147.344 53.6136 147.127 53.787 147.08L57.9695 145.93C58.0562 145.907 58.1459 145.932 58.2079 145.995L59.1402 146.981C59.2635 147.111 59.2033 147.328 59.0299 147.375Z" stroke="#808181" stroke-width="0.196966" stroke-miterlimit="10"/>
<path d="M61.2935 149.92L57.111 151.07C57.0243 151.093 56.9347 151.067 56.8726 151.004L55.9403 150.019C55.817 149.889 55.8772 149.671 56.0507 149.625L60.2332 148.475C60.3199 148.452 60.4095 148.477 60.4716 148.54L61.4039 149.526C61.5272 149.656 61.4669 149.873 61.2935 149.92Z" stroke="#808181" stroke-width="0.196966" stroke-miterlimit="10"/>
<path d="M89.3189 142.59L85.1364 143.741C85.0497 143.764 84.96 143.738 84.898 143.675L83.9657 142.689C83.8424 142.56 83.9026 142.342 84.0761 142.296L88.2586 141.146C88.3453 141.123 88.4349 141.148 88.497 141.211L89.4293 142.197C89.5526 142.327 89.4923 142.544 89.3189 142.59Z" stroke="#808181" stroke-width="0.196966" stroke-miterlimit="10"/>
<path d="M86.2346 148.732L82.0521 149.882C81.9654 149.905 81.8757 149.88 81.8137 149.817L79.4413 147.084C79.318 146.954 79.3782 146.737 79.5516 146.69L83.7342 145.54C83.8209 145.517 83.9105 145.543 83.9726 145.606L86.345 148.338C86.4683 148.468 86.408 148.685 86.2346 148.732Z" stroke="#808181" stroke-width="0.196966" stroke-miterlimit="10"/>
<path d="M93.0139 146.923L88.8314 148.073C88.7447 148.096 88.655 148.071 88.593 148.008L86.2206 145.275C86.0972 145.146 86.1575 144.928 86.3309 144.882L90.5135 143.732C90.6002 143.708 90.6898 143.734 90.7519 143.797L93.1243 146.53C93.2476 146.659 93.1873 146.877 93.0139 146.923Z" stroke="#808181" stroke-width="0.196966" stroke-miterlimit="10"/>
<path d="M96.466 151.131L92.2835 152.281C92.1968 152.304 92.1072 152.279 92.0451 152.216L89.6727 149.483C89.5494 149.354 89.6097 149.136 89.7831 149.09L93.9656 147.94C94.0523 147.916 94.1419 147.942 94.204 148.005L96.5764 150.738C96.6997 150.867 96.6395 151.085 96.466 151.131Z" stroke="#808181" stroke-width="0.196966" stroke-miterlimit="10"/>
<path d="M99.5578 155.565L95.3753 156.715C95.2886 156.738 95.199 156.712 95.1369 156.649L92.7645 153.917C92.6412 153.787 92.7015 153.57 92.8749 153.523L97.0574 152.373C97.1441 152.35 97.2337 152.375 97.2958 152.438L99.6682 155.171C99.7915 155.301 99.7313 155.518 99.5578 155.565Z" stroke="#808181" stroke-width="0.196966" stroke-miterlimit="10"/>
<path d="M102.867 160.004L98.6849 161.154C98.5982 161.177 98.5085 161.152 98.4465 161.089L96.0741 158.356C95.9508 158.227 96.011 158.009 96.1844 157.963L100.367 156.813C100.454 156.789 100.543 156.815 100.605 156.878L102.978 159.611C103.101 159.74 103.041 159.958 102.867 160.004Z" stroke="#808181" stroke-width="0.196966" stroke-miterlimit="10"/>
<path d="M89.6057 153.1L85.4232 154.25C85.3365 154.273 85.2468 154.248 85.1848 154.185L82.8124 151.452C82.689 151.322 82.7493 151.105 82.9227 151.058L87.1053 149.908C87.192 149.885 87.2816 149.911 87.3437 149.974L89.7161 152.706C89.8394 152.836 89.7791 153.053 89.6057 153.1Z" stroke="#808181" stroke-width="0.196966" stroke-miterlimit="10"/>
<path d="M93.092 157.361L88.9095 158.511C88.8228 158.535 88.7332 158.509 88.6711 158.446L86.2987 155.713C86.1754 155.584 86.2356 155.366 86.409 155.32L90.5916 154.17C90.6783 154.147 90.7679 154.172 90.83 154.235L93.2024 156.968C93.3257 157.097 93.2654 157.315 93.092 157.361Z" stroke="#808181" stroke-width="0.196966" stroke-miterlimit="10"/>
<path d="M96.6626 161.862L92.48 163.013C92.3933 163.036 92.3037 163.01 92.2416 162.947L89.8692 160.214C89.7459 160.085 89.8062 159.867 89.9796 159.821L94.1621 158.671C94.2488 158.648 94.3385 158.673 94.4005 158.736L96.773 161.469C96.8963 161.599 96.836 161.816 96.6626 161.862Z" stroke="#808181" stroke-width="0.196966" stroke-miterlimit="10"/>
<path d="M79.508 150.689L75.3255 151.839C75.2388 151.862 75.1492 151.836 75.0871 151.773L72.7147 149.041C72.5914 148.911 72.6517 148.694 72.8251 148.647L77.0076 147.497C77.0943 147.474 77.1839 147.499 77.246 147.562L79.6184 150.295C79.7417 150.425 79.6815 150.642 79.508 150.689Z" stroke="#808181" stroke-width="0.196966" stroke-miterlimit="10"/>
<path d="M82.8791 155.056L78.6966 156.206C78.6099 156.229 78.5203 156.203 78.4582 156.14L76.0858 153.408C75.9625 153.278 76.0227 153.061 76.1962 153.014L80.3787 151.864C80.4654 151.841 80.555 151.866 80.6171 151.929L82.9895 154.662C83.1128 154.792 83.0525 155.009 82.8791 155.056Z" stroke="#808181" stroke-width="0.196966" stroke-miterlimit="10"/>
<path d="M86.3655 159.315L82.1829 160.465C82.0962 160.489 82.0066 160.463 81.9445 160.4L79.5721 157.667C79.4488 157.538 79.5091 157.32 79.6825 157.274L83.865 156.124C83.9517 156.101 84.0414 156.126 84.1034 156.189L86.4758 158.922C86.5991 159.051 86.5389 159.269 86.3655 159.315Z" stroke="#808181" stroke-width="0.196966" stroke-miterlimit="10"/>
<path d="M89.9358 163.821L85.7532 164.972C85.6665 164.995 85.5769 164.969 85.5148 164.906L83.1424 162.173C83.0191 162.044 83.0794 161.826 83.2528 161.78L87.4353 160.63C87.522 160.607 87.6117 160.632 87.6737 160.695L90.0461 163.428C90.1694 163.558 90.1092 163.775 89.9358 163.821Z" stroke="#808181" stroke-width="0.196966" stroke-miterlimit="10"/>
<path d="M72.7815 152.646L68.5989 153.796C68.5122 153.819 68.4226 153.793 68.3605 153.73L65.9881 150.998C65.8648 150.868 65.9251 150.651 66.0985 150.604L70.281 149.454C70.3677 149.431 70.4574 149.457 70.5194 149.52L72.8918 152.252C73.0152 152.382 72.9549 152.599 72.7815 152.646Z" stroke="#808181" stroke-width="0.196966" stroke-miterlimit="10"/>
<path d="M64.915 154.547L60.7325 155.697C60.6458 155.72 60.5562 155.695 60.4941 155.632L58.1217 152.899C57.9984 152.77 58.0586 152.552 58.232 152.506L62.4146 151.356C62.5013 151.332 62.5909 151.358 62.653 151.421L65.0254 154.154C65.1487 154.283 65.0884 154.501 64.915 154.547Z" stroke="#808181" stroke-width="0.196966" stroke-miterlimit="10"/>
<path d="M68.7053 159.015L64.5228 160.165C64.4361 160.188 64.3464 160.163 64.2844 160.1L61.912 157.367C61.7887 157.237 61.8489 157.02 62.0223 156.973L66.2049 155.823C66.2916 155.8 66.3812 155.826 66.4433 155.889L68.8157 158.621C68.939 158.751 68.8787 158.968 68.7053 159.015Z" stroke="#808181" stroke-width="0.196966" stroke-miterlimit="10"/>
<path d="M72.4416 163.334L68.2591 164.484C68.1724 164.507 68.0828 164.482 68.0207 164.419L65.6483 161.686C65.525 161.557 65.5852 161.339 65.7587 161.293L69.9412 160.143C70.0279 160.12 70.1175 160.145 70.1796 160.208L72.552 162.941C72.6753 163.07 72.615 163.288 72.4416 163.334Z" stroke="#808181" stroke-width="0.196966" stroke-miterlimit="10"/>
<path d="M76.7143 167.833L72.5318 168.983C72.4451 169.006 72.3555 168.981 72.2934 168.918L69.921 166.185C69.7977 166.056 69.8579 165.838 70.0314 165.792L74.2139 164.642C74.3006 164.618 74.3902 164.644 74.4523 164.707L76.8247 167.44C76.948 167.569 76.8878 167.787 76.7143 167.833Z" stroke="#808181" stroke-width="0.196966" stroke-miterlimit="10"/>
<path d="M76.1545 157.014L71.972 158.164C71.8853 158.187 71.7957 158.162 71.7336 158.099L69.3612 155.366C69.2379 155.236 69.2981 155.019 69.4715 154.973L73.6541 153.822C73.7408 153.799 73.8304 153.825 73.8925 153.888L76.2649 156.62C76.3882 156.75 76.3279 156.967 76.1545 157.014Z" stroke="#808181" stroke-width="0.196966" stroke-miterlimit="10"/>
<path d="M83.2117 165.776L79.0291 166.926C78.9424 166.949 78.8528 166.924 78.7907 166.861L72.7271 159.604C72.6038 159.474 72.6641 159.257 72.8375 159.211L77.02 158.06C77.1067 158.037 77.1964 158.063 77.2584 158.126L83.322 165.382C83.4454 165.512 83.3851 165.729 83.2117 165.776Z" stroke="#808181" stroke-width="0.196966" stroke-miterlimit="10"/>
<path d="M80.0402 138.112C79.827 138.989 80.7218 139.962 82.0372 140.282C83.3525 140.601 84.5934 140.151 84.8075 139.271C85.0215 138.391 84.1258 137.421 82.8105 137.101C81.4951 136.781 80.2542 137.231 80.0402 138.112Z" stroke="#808181" stroke-width="0.196966" stroke-miterlimit="10"/>
<path d="M56.8814 144.544L52.6989 145.694C52.6122 145.717 52.5226 145.691 52.4605 145.628L51.5282 144.643C51.4049 144.513 51.4651 144.296 51.6386 144.249L55.8211 143.099C55.9078 143.076 55.9974 143.101 56.0595 143.164L56.9918 144.15C57.1151 144.28 57.0548 144.497 56.8814 144.544Z" stroke="#808181" stroke-width="0.196966" stroke-miterlimit="10"/>
<path d="M78.6871 138.598L74.5045 139.748C74.4178 139.772 74.3282 139.746 74.2661 139.683L73.3339 138.697C73.2105 138.568 73.2708 138.35 73.4442 138.304L77.6268 137.154C77.7135 137.131 77.8031 137.156 77.8652 137.219L78.7975 138.205C78.9208 138.334 78.8605 138.552 78.6871 138.598Z" fill="white" stroke="#124052" stroke-width="0.196966" stroke-miterlimit="10"/>
<path d="M80.8375 141.431L76.6549 142.581C76.5682 142.605 76.4786 142.579 76.4165 142.516L75.4842 141.53C75.3609 141.401 75.4212 141.183 75.5946 141.137L79.7771 139.987C79.8639 139.964 79.9535 139.989 80.0156 140.052L80.9478 141.038C81.0711 141.167 81.0109 141.385 80.8375 141.431Z" fill="white" stroke="#124052" stroke-width="0.196966" stroke-miterlimit="10"/>
<path d="M83.1002 143.975L78.9176 145.125C78.8309 145.148 78.7413 145.123 78.6792 145.06L77.7469 144.074C77.6236 143.945 77.6839 143.727 77.8573 143.681L82.0398 142.531C82.1266 142.508 82.2162 142.533 82.2783 142.596L83.2105 143.582C83.3338 143.711 83.2736 143.929 83.1002 143.975Z" fill="white" stroke="#124052" stroke-width="0.196966" stroke-miterlimit="10"/>
<path d="M71.6978 140.362L67.5153 141.512C67.4286 141.535 67.339 141.51 67.2769 141.447L66.3446 140.461C66.2213 140.331 66.2816 140.114 66.455 140.068L70.6375 138.917C70.7242 138.894 70.8138 138.92 70.8759 138.983L71.8082 139.969C71.9315 140.098 71.8712 140.316 71.6978 140.362Z" fill="white" stroke="#124052" stroke-width="0.196966" stroke-miterlimit="10"/>
<path d="M73.8482 143.188L69.6657 144.338C69.579 144.361 69.4894 144.336 69.4273 144.273L68.495 143.287C68.3717 143.158 68.4319 142.94 68.6054 142.894L72.7879 141.744C72.8746 141.72 72.9642 141.746 73.0263 141.809L73.9586 142.795C74.0819 142.924 74.0216 143.142 73.8482 143.188Z" fill="white" stroke="#124052" stroke-width="0.196966" stroke-miterlimit="10"/>
<path d="M76.1129 145.731L71.9303 146.881C71.8436 146.904 71.754 146.879 71.6919 146.816L70.7596 145.83C70.6363 145.7 70.6966 145.483 70.87 145.437L75.0525 144.287C75.1392 144.263 75.2289 144.289 75.2909 144.352L76.2232 145.338C76.3465 145.467 76.2863 145.685 76.1129 145.731Z" fill="white" stroke="#124052" stroke-width="0.196966" stroke-miterlimit="10"/>
<path d="M64.7105 142.12L60.528 143.27C60.4413 143.293 60.3517 143.268 60.2896 143.205L59.3573 142.219C59.234 142.089 59.2942 141.872 59.4677 141.825L63.6502 140.675C63.7369 140.652 63.8265 140.678 63.8886 140.741L64.8209 141.726C64.9442 141.856 64.8839 142.073 64.7105 142.12Z" fill="white" stroke="#124052" stroke-width="0.196966" stroke-miterlimit="10"/>
<path d="M66.8619 144.947L62.6794 146.097C62.5926 146.12 62.503 146.095 62.4409 146.032L61.5087 145.046C61.3854 144.916 61.4456 144.699 61.619 144.652L65.8016 143.502C65.8883 143.479 65.9779 143.505 66.04 143.568L66.9723 144.554C67.0956 144.683 67.0353 144.901 66.8619 144.947Z" fill="white" stroke="#124052" stroke-width="0.196966" stroke-miterlimit="10"/>
<path d="M69.1197 147.494L64.9372 148.644C64.8505 148.667 64.7608 148.642 64.6988 148.579L63.7665 147.593C63.6432 147.463 63.7034 147.246 63.8768 147.199L68.0594 146.049C68.1461 146.026 68.2357 146.052 68.2978 146.115L69.2301 147.1C69.3534 147.23 69.2931 147.447 69.1197 147.494Z" fill="white" stroke="#124052" stroke-width="0.196966" stroke-miterlimit="10"/>
<path d="M59.5162 146.887L55.3337 148.037C55.2469 148.061 55.1573 148.035 55.0952 147.972L54.163 146.986C54.0397 146.857 54.0999 146.639 54.2733 146.593L58.4559 145.443C58.5426 145.42 58.6322 145.445 58.6943 145.508L59.6266 146.494C59.7499 146.623 59.6896 146.841 59.5162 146.887Z" fill="white" stroke="#124052" stroke-width="0.196966" stroke-miterlimit="10"/>
<path d="M61.7789 149.432L57.5963 150.582C57.5096 150.605 57.42 150.58 57.3579 150.517L56.4257 149.531C56.3023 149.402 56.3626 149.184 56.536 149.138L60.7185 147.988C60.8053 147.965 60.8949 147.99 60.957 148.053L61.8892 149.039C62.0126 149.168 61.9523 149.386 61.7789 149.432Z" fill="white" stroke="#124052" stroke-width="0.196966" stroke-miterlimit="10"/>
<path d="M89.8062 142.103L85.6237 143.253C85.537 143.276 85.4474 143.251 85.3853 143.188L84.453 142.202C84.3297 142.073 84.3899 141.855 84.5634 141.809L88.7459 140.659C88.8326 140.635 88.9222 140.661 88.9843 140.724L89.9166 141.71C90.0399 141.839 89.9796 142.057 89.8062 142.103Z" fill="white" stroke="#124052" stroke-width="0.196966" stroke-miterlimit="10"/>
<path d="M86.7209 148.244L82.5384 149.394C82.4517 149.417 82.3621 149.392 82.3 149.329L79.9276 146.596C79.8043 146.467 79.8645 146.249 80.038 146.203L84.2205 145.053C84.3072 145.03 84.3968 145.055 84.4589 145.118L86.8313 147.851C86.9546 147.98 86.8943 148.198 86.7209 148.244Z" fill="white" stroke="#124052" stroke-width="0.196966" stroke-miterlimit="10"/>
<path d="M93.5002 146.436L89.3177 147.586C89.231 147.609 89.1414 147.583 89.0793 147.52L86.7069 144.788C86.5836 144.658 86.6438 144.441 86.8173 144.394L90.9998 143.244C91.0865 143.221 91.1761 143.246 91.2382 143.31L93.6106 146.042C93.7339 146.172 93.6736 146.389 93.5002 146.436Z" fill="white" stroke="#124052" stroke-width="0.196966" stroke-miterlimit="10"/>
<path d="M96.9534 150.644L92.7708 151.794C92.6841 151.817 92.5945 151.791 92.5324 151.728L90.16 148.996C90.0367 148.866 90.097 148.649 90.2704 148.602L94.4529 147.452C94.5396 147.429 94.6292 147.455 94.6913 147.518L97.0637 150.25C97.187 150.38 97.1268 150.597 96.9534 150.644Z" fill="white" stroke="#124052" stroke-width="0.196966" stroke-miterlimit="10"/>
<path d="M100.044 155.077L95.8616 156.227C95.7749 156.25 95.6853 156.225 95.6232 156.162L93.2508 153.429C93.1275 153.3 93.1878 153.082 93.3612 153.036L97.5437 151.886C97.6304 151.863 97.7201 151.888 97.7821 151.951L100.155 154.684C100.278 154.813 100.218 155.031 100.044 155.077Z" fill="white" stroke="#124052" stroke-width="0.196966" stroke-miterlimit="10"/>
<path d="M103.354 159.517L99.1712 160.667C99.0845 160.69 98.9949 160.664 98.9328 160.601L96.5604 157.869C96.4371 157.739 96.4974 157.522 96.6708 157.475L100.853 156.325C100.94 156.302 101.03 156.328 101.092 156.391L103.464 159.123C103.587 159.253 103.527 159.47 103.354 159.517Z" fill="white" stroke="#124052" stroke-width="0.196966" stroke-miterlimit="10"/>
<path d="M90.092 152.613L85.9095 153.763C85.8228 153.787 85.7332 153.761 85.6711 153.698L83.2987 150.965C83.1754 150.836 83.2356 150.618 83.4091 150.572L87.5916 149.422C87.6783 149.399 87.7679 149.424 87.83 149.487L90.2024 152.22C90.3257 152.35 90.2654 152.567 90.092 152.613Z" fill="white" stroke="#124052" stroke-width="0.196966" stroke-miterlimit="10"/>
<path d="M93.5784 156.874L89.3958 158.024C89.3091 158.047 89.2195 158.022 89.1574 157.959L86.785 155.226C86.6617 155.097 86.722 154.879 86.8954 154.833L91.0779 153.683C91.1646 153.659 91.2542 153.685 91.3163 153.748L93.6887 156.481C93.812 156.61 93.7518 156.828 93.5784 156.874Z" fill="white" stroke="#124052" stroke-width="0.196966" stroke-miterlimit="10"/>
<path d="M97.1487 161.376L92.9661 162.526C92.8794 162.549 92.7898 162.524 92.7277 162.461L90.3553 159.728C90.232 159.599 90.2923 159.381 90.4657 159.335L94.6482 158.185C94.7349 158.161 94.8246 158.187 94.8866 158.25L97.259 160.983C97.3823 161.112 97.3221 161.33 97.1487 161.376Z" fill="white" stroke="#124052" stroke-width="0.196966" stroke-miterlimit="10"/>
<path d="M79.9944 150.202L75.8118 151.352C75.7251 151.376 75.6355 151.35 75.5734 151.287L73.201 148.554C73.0777 148.425 73.138 148.207 73.3114 148.161L77.4939 147.011C77.5806 146.988 77.6703 147.013 77.7323 147.076L80.1047 149.809C80.228 149.938 80.1678 150.156 79.9944 150.202Z" fill="white" stroke="#124052" stroke-width="0.196966" stroke-miterlimit="10"/>
<path d="M83.3655 154.568L79.1829 155.719C79.0962 155.742 79.0066 155.716 78.9445 155.653L76.5721 152.92C76.4488 152.791 76.5091 152.573 76.6825 152.527L80.865 151.377C80.9517 151.354 81.0414 151.379 81.1034 151.442L83.4758 154.175C83.5991 154.305 83.5389 154.522 83.3655 154.568Z" fill="white" stroke="#124052" stroke-width="0.196966" stroke-miterlimit="10"/>
<path d="M86.8518 158.828L82.6693 159.978C82.5825 160.001 82.4929 159.976 82.4308 159.913L80.0584 157.18C79.9351 157.051 79.9954 156.833 80.1688 156.787L84.3513 155.637C84.4381 155.614 84.5277 155.639 84.5898 155.702L86.9622 158.435C87.0855 158.564 87.0252 158.782 86.8518 158.828Z" fill="white" stroke="#124052" stroke-width="0.196966" stroke-miterlimit="10"/>
<path d="M90.4221 163.334L86.2396 164.484C86.1529 164.507 86.0632 164.482 86.0012 164.419L83.6288 161.686C83.5055 161.557 83.5657 161.339 83.7391 161.293L87.9217 160.143C88.0084 160.119 88.098 160.145 88.1601 160.208L90.5325 162.941C90.6558 163.07 90.5955 163.288 90.4221 163.334Z" fill="white" stroke="#124052" stroke-width="0.196966" stroke-miterlimit="10"/>
<path d="M73.2678 152.159L69.0853 153.309C68.9986 153.333 68.9089 153.307 68.8469 153.244L66.4745 150.511C66.3512 150.382 66.4114 150.164 66.5848 150.118L70.7674 148.968C70.8541 148.945 70.9437 148.97 71.0058 149.033L73.3782 151.766C73.5015 151.895 73.4412 152.113 73.2678 152.159Z" fill="white" stroke="#124052" stroke-width="0.196966" stroke-miterlimit="10"/>
<path d="M65.4016 154.06L61.2191 155.21C61.1324 155.233 61.0427 155.207 60.9807 155.144L58.6083 152.412C58.4849 152.282 58.5452 152.065 58.7186 152.018L62.9012 150.868C62.9879 150.845 63.0775 150.871 63.1396 150.934L65.512 153.666C65.6353 153.796 65.575 154.013 65.4016 154.06Z" fill="white" stroke="#124052" stroke-width="0.196966" stroke-miterlimit="10"/>
<path d="M69.1916 158.527L65.0091 159.678C64.9224 159.701 64.8328 159.675 64.7707 159.612L62.3983 156.879C62.275 156.75 62.3352 156.532 62.5087 156.486L66.6912 155.336C66.7779 155.313 66.8675 155.338 66.9296 155.401L69.302 158.134C69.4253 158.264 69.365 158.481 69.1916 158.527Z" fill="white" stroke="#124052" stroke-width="0.196966" stroke-miterlimit="10"/>
<path d="M72.927 162.847L68.7445 163.997C68.6577 164.02 68.5681 163.995 68.506 163.932L66.1336 161.199C66.0103 161.069 66.0706 160.852 66.244 160.805L70.4265 159.655C70.5132 159.632 70.6029 159.658 70.665 159.721L73.0374 162.453C73.1607 162.583 73.1004 162.8 72.927 162.847Z" fill="white" stroke="#124052" stroke-width="0.196966" stroke-miterlimit="10"/>
<path d="M77.2004 167.346L73.0179 168.496C72.9312 168.519 72.8416 168.494 72.7795 168.431L70.4071 165.698C70.2838 165.568 70.344 165.351 70.5174 165.304L74.7 164.154C74.7867 164.131 74.8763 164.157 74.9384 164.22L77.3108 166.952C77.4341 167.082 77.3738 167.299 77.2004 167.346Z" fill="white" stroke="#124052" stroke-width="0.196966" stroke-miterlimit="10"/>
<path d="M76.6399 156.526L72.4573 157.677C72.3706 157.7 72.281 157.674 72.2189 157.611L69.8465 154.878C69.7232 154.749 69.7835 154.531 69.9569 154.485L74.1394 153.335C74.2261 153.312 74.3158 153.337 74.3778 153.4L76.7502 156.133C76.8736 156.263 76.8133 156.48 76.6399 156.526Z" fill="white" stroke="#124052" stroke-width="0.196966" stroke-miterlimit="10"/>
<path d="M83.697 165.288L79.5145 166.439C79.4278 166.462 79.3382 166.436 79.2761 166.373L73.2125 159.117C73.0892 158.987 73.1494 158.769 73.3229 158.723L77.5054 157.573C77.5921 157.55 77.6817 157.575 77.7438 157.638L83.8074 164.895C83.9307 165.025 83.8704 165.242 83.697 165.288Z" fill="white" stroke="#124052" stroke-width="0.196966" stroke-miterlimit="10"/>
<path d="M80.5268 137.625C80.3136 138.502 81.2084 139.475 82.5238 139.795C83.8391 140.115 85.08 139.665 85.294 138.785C85.5081 137.904 84.6124 136.935 83.297 136.615C81.9817 136.295 80.7408 136.745 80.5268 137.625Z" fill="#124052"/>
<path d="M57.3678 144.057L53.1852 145.207C53.0985 145.23 53.0089 145.205 52.9468 145.142L52.0145 144.156C51.8912 144.027 51.9515 143.809 52.1249 143.763L56.3074 142.613C56.3941 142.59 56.4838 142.615 56.5458 142.678L57.4781 143.664C57.6014 143.793 57.5412 144.011 57.3678 144.057Z" fill="white" stroke="#124052" stroke-width="0.196966" stroke-miterlimit="10"/>
<path d="M48.194 96.7339L48.1953 96.7285" stroke="#124052" stroke-width="0.196966" stroke-miterlimit="10"/>
</svg>
